<svg xmlns="http://www.w3.org/2000/svg" viewBox="0 0 403 363" width="403" height="363">
  <g fill="#ffffff" fill-rule="evenodd" stroke="none">
    <path d="M 121.00 329.50 L 120.00 329.50 L 119.00 329.50 L 118.50 329.00 L 118.00 328.50 L 117.00 328.50 L 116.50 328.00 L 116.00 327.50 L 115.00 327.50 L 114.50 327.00 L 114.00 326.50 L 113.00 326.50 L 112.50 326.00 L 112.00 325.50 L 111.00 325.50 L 110.50 325.00 L 110.00 324.50 L 109.00 324.50 L 108.00 324.50 L 107.50 324.00 L 107.00 323.50 L 106.50 323.00 L 106.00 322.50 L 105.00 322.50 L 104.50 322.00 L 104.00 321.50 L 103.00 321.50 L 102.50 321.00 L 102.00 320.50 L 101.00 320.50 L 100.50 320.00 L 100.00 319.50 L 99.50 319.00 L 99.00 318.50 L 98.00 318.50 L 97.50 318.00 L 97.00 317.50 L 96.00 317.50 L 95.50 317.00 L 95.00 316.50 L 94.50 316.00 L 94.00 315.50 L 93.00 315.50 L 92.50 315.00 L 92.00 314.50 L 91.00 314.50 L 90.50 314.00 L 90.00 313.50 L 89.50 313.00 L 89.00 312.50 L 88.00 312.50 L 87.50 312.00 L 87.00 311.50 L 86.50 311.00 L 86.00 310.50 L 85.00 310.50 L 84.50 310.00 L 84.00 309.50 L 83.50 309.00 L 83.00 308.50 L 82.50 308.00 L 82.00 307.50 L 81.50 307.00 L 81.00 306.50 L 80.00 306.50 L 79.50 306.00 L 79.00 305.50 L 78.50 305.00 L 78.00 304.50 L 77.50 304.00 L 77.00 303.50 L 76.50 303.00 L 76.00 302.50 L 75.50 302.00 L 75.00 301.50 L 74.50 301.00 L 74.00 300.50 L 73.00 300.50 L 72.50 300.00 L 72.00 299.50 L 71.50 299.00 L 71.00 298.50 L 70.50 298.00 L 70.00 297.50 L 69.50 297.00 L 69.00 296.50 L 68.50 296.00 L 68.00 295.50 L 67.50 295.00 L 67.00 294.50 L 66.50 294.00 L 66.00 293.50 L 65.50 293.00 L 65.00 292.50 L 64.50 292.00 L 64.00 291.50 L 63.50 291.00 L 63.00 290.50 L 62.50 290.00 L 62.00 289.50 L 61.50 289.00 L 61.00 288.50 L 60.50 288.00 L 60.00 287.50 L 59.50 287.00 L 59.50 286.00 L 59.00 285.50 L 58.50 285.00 L 58.00 284.50 L 57.50 284.00 L 57.00 283.50 L 56.50 283.00 L 56.00 282.50 L 55.50 282.00 L 55.00 281.50 L 54.50 281.00 L 54.00 280.50 L 53.50 280.00 L 53.50 279.00 L 53.00 278.50 L 52.50 278.00 L 52.00 277.50 L 51.50 277.00 L 51.00 276.50 L 50.50 276.00 L 50.50 275.00 L 50.00 274.50 L 49.50 274.00 L 49.00 273.50 L 48.50 273.00 L 48.00 272.50 L 47.50 272.00 L 47.50 271.00 L 47.00 270.50 L 46.50 270.00 L 46.00 269.50 L 45.50 269.00 L 45.50 268.00 L 45.00 267.50 L 44.50 267.00 L 44.00 266.50 L 43.50 266.00 L 43.50 265.00 L 43.00 264.50 L 42.50 264.00 L 42.50 263.00 L 42.00 262.50 L 41.50 262.00 L 41.50 261.00 L 41.00 260.50 L 40.50 260.00 L 40.00 259.50 L 39.50 259.00 L 39.50 258.00 L 39.00 257.50 L 38.50 257.00 L 38.50 256.00 L 38.00 255.50 L 37.50 255.00 L 37.50 254.00 L 37.00 253.50 L 36.50 253.00 L 36.50 252.00 L 36.00 251.50 L 35.50 251.00 L 35.50 250.00 L 35.00 249.50 L 34.50 249.00 L 34.50 248.00 L 34.00 247.50 L 33.50 247.00 L 33.50 246.00 L 33.00 245.50 L 32.50 245.00 L 32.50 244.00 L 32.00 243.50 L 31.50 243.00 L 31.50 242.00 L 31.00 241.50 L 30.50 241.00 L 30.50 240.00 L 30.00 239.50 L 29.50 239.00 L 29.50 238.00 L 29.50 237.00 L 29.00 236.50 L 28.50 236.00 L 28.50 235.00 L 28.00 234.50 L 27.50 234.00 L 27.50 233.00 L 27.50 232.00 L 27.50 231.00 L 27.00 230.50 L 26.50 230.00 L 26.50 229.00 L 26.50 228.00 L 26.00 227.50 L 25.50 227.00 L 25.50 226.00 L 25.50 225.00 L 25.00 224.50 L 24.50 224.00 L 24.50 223.00 L 24.50 222.00 L 24.00 221.50 L 23.50 221.00 L 23.50 220.00 L 23.50 219.00 L 23.50 218.00 L 23.00 217.50 L 22.50 217.00 L 22.50 216.00 L 22.50 215.00 L 22.50 214.00 L 22.00 213.50 L 21.50 213.00 L 21.50 212.00 L 21.50 211.00 L 21.50 210.00 L 21.50 209.00 L 21.00 208.50 L 20.50 208.00 L 20.50 207.00 L 20.50 206.00 L 20.50 205.00 L 20.50 204.00 L 20.00 203.50 L 19.50 203.00 L 19.50 202.00 L 19.50 201.00 L 19.50 200.00 L 19.50 199.00 L 19.50 198.00 L 19.50 197.00 L 19.50 196.00 L 19.00 195.50 L 18.50 195.00 L 18.50 194.00 L 18.50 193.00 L 18.50 192.00 L 18.50 191.00 L 18.50 190.00 L 18.50 189.00 L 18.50 188.00 L 18.50 187.00 L 18.50 186.00 L 18.50 185.00 L 18.50 184.00 L 18.50 183.00 L 18.50 182.00 L 18.50 181.00 L 18.50 180.00 L 18.50 179.00 L 18.00 178.50 L 17.50 178.00 L 18.00 177.50 L 18.50 177.00 L 18.50 176.00 L 18.00 175.50 L 17.50 175.00 L 18.00 174.50 L 18.50 174.00 L 18.50 173.00 L 18.50 172.00 L 18.50 171.00 L 18.50 170.00 L 18.50 169.00 L 18.50 168.00 L 18.50 167.00 L 18.50 166.00 L 18.50 165.00 L 18.50 164.00 L 18.50 163.00 L 18.50 162.00 L 18.50 161.00 L 18.50 160.00 L 18.50 159.00 L 18.50 158.00 L 19.00 157.50 L 19.50 157.00 L 19.50 156.00 L 19.50 155.00 L 19.50 154.00 L 19.50 153.00 L 19.50 152.00 L 19.50 151.00 L 20.00 150.50 L 20.50 150.00 L 20.50 149.00 L 20.50 148.00 L 20.50 147.00 L 20.50 146.00 L 20.50 145.00 L 21.00 144.50 L 21.50 144.00 L 21.50 143.00 L 21.50 142.00 L 21.50 141.00 L 22.00 140.50 L 22.50 140.00 L 22.50 139.00 L 22.50 138.00 L 22.50 137.00 L 23.00 136.50 L 23.50 136.00 L 23.50 135.00 L 23.50 134.00 L 23.50 133.00 L 24.00 132.50 L 24.50 132.00 L 24.50 131.00 L 24.50 130.00 L 24.50 129.00 L 25.00 128.50 L 25.50 128.00 L 25.50 127.00 L 26.00 126.50 L 26.50 126.00 L 26.50 125.00 L 26.50 124.00 L 27.00 123.50 L 27.50 123.00 L 27.50 122.00 L 28.00 121.50 L 28.50 121.00 L 28.50 120.00 L 28.50 119.00 L 28.50 118.00 L 29.00 117.50 L 29.50 117.00 L 29.50 116.00 L 30.00 115.50 L 30.50 115.00 L 30.50 114.00 L 31.00 113.50 L 31.50 113.00 L 31.50 112.00 L 32.00 111.50 L 32.50 111.00 L 32.50 110.00 L 32.50 109.00 L 33.00 108.50 L 33.50 108.00 L 34.00 107.50 L 34.50 107.00 L 34.50 106.00 L 35.00 105.50 L 35.50 105.00 L 35.50 104.00 L 36.00 103.50 L 36.50 103.00 L 36.50 102.00 L 37.00 101.50 L 37.50 101.00 L 37.50 100.00 L 38.00 99.50 L 38.50 99.00 L 38.50 98.00 L 39.00 97.50 L 39.50 97.00 L 39.50 96.00 L 40.00 95.50 L 40.50 95.00 L 41.00 94.50 L 41.50 94.00 L 41.50 93.00 L 42.00 92.50 L 42.50 92.00 L 43.00 91.50 L 43.50 91.00 L 43.50 90.00 L 44.00 89.50 L 44.50 89.00 L 44.50 88.00 L 45.00 87.50 L 45.50 87.00 L 46.00 86.50 L 46.50 86.00 L 46.50 85.00 L 47.00 84.50 L 47.50 84.00 L 48.00 83.50 L 48.50 83.00 L 49.00 82.50 L 49.50 82.00 L 50.00 81.50 L 50.50 81.00 L 50.50 80.00 L 51.00 79.50 L 51.50 79.00 L 52.00 78.50 L 52.50 78.00 L 52.50 77.00 L 53.00 76.50 L 53.50 76.00 L 54.00 75.50 L 54.50 75.00 L 55.00 74.50 L 55.50 74.00 L 56.00 73.50 L 56.50 73.00 L 57.00 72.50 L 57.50 72.00 L 58.00 71.50 L 58.50 71.00 L 59.00 70.50 L 59.50 70.00 L 60.00 69.50 L 60.50 69.00 L 61.00 68.50 L 61.50 68.00 L 61.50 67.00 L 62.00 66.50 L 62.50 66.00 L 63.00 65.50 L 63.50 65.00 L 64.00 64.50 L 64.50 64.00 L 65.00 63.50 L 65.50 63.00 L 66.00 62.50 L 66.50 62.00 L 67.00 61.50 L 67.50 61.00 L 68.00 60.50 L 69.00 60.50 L 69.50 60.00 L 70.00 59.50 L 70.50 59.00 L 71.00 58.50 L 71.50 58.00 L 72.00 57.50 L 72.50 57.00 L 73.00 56.50 L 73.50 56.00 L 74.00 55.50 L 74.50 55.00 L 75.00 54.50 L 76.00 54.50 L 76.50 54.00 L 77.00 53.50 L 77.50 53.00 L 78.00 52.50 L 78.50 52.00 L 79.00 51.50 L 79.50 51.00 L 80.00 50.50 L 80.50 50.00 L 81.00 49.50 L 82.00 49.50 L 82.50 49.00 L 83.00 48.50 L 83.50 48.00 L 84.00 47.50 L 85.00 47.50 L 85.50 47.00 L 86.00 46.50 L 86.50 46.00 L 87.00 45.50 L 87.50 45.00 L 88.00 44.50 L 89.00 44.50 L 89.50 44.00 L 90.00 43.50 L 90.50 43.00 L 91.00 42.50 L 92.00 42.50 L 92.50 42.00 L 93.00 41.50 L 94.00 41.50 L 94.50 41.00 L 95.00 40.50 L 95.50 40.00 L 96.00 39.50 L 97.00 39.50 L 97.50 39.00 L 98.00 38.50 L 99.00 38.50 L 99.50 38.00 L 100.00 37.50 L 101.00 37.50 L 101.50 37.00 L 102.00 36.50 L 103.00 36.50 L 103.50 36.00 L 104.00 35.50 L 105.00 35.50 L 105.50 35.00 L 106.00 34.50 L 106.50 34.00 L 107.00 33.50 L 108.00 33.50 L 109.00 33.50 L 109.50 33.00 L 110.00 32.50 L 111.00 32.50 L 111.50 32.00 L 112.00 31.50 L 113.00 31.50 L 113.50 31.00 L 114.00 30.50 L 115.00 30.50 L 115.50 30.00 L 116.00 29.50 L 117.00 29.50 L 117.50 29.00 L 118.00 28.50 L 119.00 28.50 L 119.50 28.00 L 120.00 27.50 L 121.00 27.50 L 122.00 27.50 L 122.50 27.00 L 123.00 26.50 L 124.00 26.50 L 125.00 26.50 L 125.50 26.00 L 126.00 25.50 L 127.00 25.50 L 128.00 25.50 L 128.50 25.00 L 129.00 24.50 L 130.00 24.50 L 131.00 24.50 L 132.00 24.50 L 132.50 24.00 L 133.00 23.50 L 134.00 23.50 L 135.00 23.50 L 135.50 23.00 L 136.00 22.50 L 137.00 22.50 L 138.00 22.50 L 139.00 22.50 L 139.50 22.00 L 140.00 21.50 L 141.00 21.50 L 142.00 21.50 L 143.00 21.50 L 143.50 21.00 L 144.00 20.50 L 145.00 20.50 L 146.00 20.50 L 147.00 20.50 L 148.00 20.50 L 149.00 20.50 L 149.50 20.00 L 150.00 19.50 L 151.00 19.50 L 152.00 19.50 L 153.00 19.50 L 154.00 19.50 L 155.00 19.50 L 155.50 19.00 L 156.00 18.50 L 157.00 18.50 L 158.00 18.50 L 159.00 18.50 L 160.00 18.50 L 161.00 18.50 L 162.00 18.50 L 163.00 18.50 L 164.00 18.50 L 165.00 18.50 L 165.50 18.00 L 166.00 17.50 L 167.00 17.50 L 168.00 17.50 L 169.00 17.50 L 170.00 17.50 L 171.00 17.50 L 172.00 17.50 L 173.00 17.50 L 174.00 17.50 L 175.00 17.50 L 176.00 17.50 L 177.00 17.50 L 178.00 17.50 L 179.00 17.50 L 180.00 17.50 L 181.00 17.50 L 182.00 17.50 L 183.00 17.50 L 184.00 17.50 L 185.00 17.50 L 186.00 17.50 L 187.00 17.50 L 188.00 17.50 L 188.50 18.00 L 189.00 18.50 L 190.00 18.50 L 191.00 18.50 L 192.00 18.50 L 193.00 18.50 L 194.00 18.50 L 195.00 18.50 L 196.00 18.50 L 196.50 19.00 L 197.00 19.50 L 198.00 19.50 L 199.00 19.50 L 200.00 19.50 L 201.00 19.50 L 202.00 19.50 L 203.00 19.50 L 203.50 20.00 L 204.00 20.50 L 205.00 20.50 L 206.00 20.50 L 207.00 20.50 L 208.00 20.50 L 208.50 21.00 L 209.00 21.50 L 210.00 21.50 L 211.00 21.50 L 212.00 21.50 L 212.50 22.00 L 213.00 22.50 L 214.00 22.50 L 215.00 22.50 L 215.50 23.00 L 216.00 23.50 L 217.00 23.50 L 218.00 23.50 L 219.00 23.50 L 219.50 24.00 L 220.00 24.50 L 221.00 24.50 L 222.00 24.50 L 223.00 24.50 L 223.50 25.00 L 224.00 25.50 L 225.00 25.50 L 226.00 25.50 L 226.50 26.00 L 227.00 26.50 L 228.00 26.50 L 228.50 27.00 L 229.00 27.50 L 230.00 27.50 L 231.00 27.50 L 231.50 28.00 L 232.00 28.50 L 233.00 28.50 L 233.50 29.00 L 234.00 29.50 L 235.00 29.50 L 236.00 29.50 L 236.50 30.00 L 237.00 30.50 L 238.00 30.50 L 238.50 31.00 L 239.00 31.50 L 240.00 31.50 L 240.50 32.00 L 241.00 32.50 L 242.00 32.50 L 242.50 33.00 L 243.00 33.50 L 244.00 33.50 L 244.50 34.00 L 245.00 34.50 L 246.00 34.50 L 246.50 35.00 L 247.00 35.50 L 248.00 35.50 L 248.50 36.00 L 249.00 36.50 L 250.00 36.50 L 250.50 37.00 L 251.00 37.50 L 252.00 37.50 L 252.50 38.00 L 253.00 38.50 L 253.50 39.00 L 254.00 39.50 L 255.00 39.50 L 255.50 40.00 L 256.00 40.50 L 257.00 40.50 L 257.50 41.00 L 258.00 41.50 L 259.00 41.50 L 259.50 42.00 L 260.00 42.50 L 260.50 43.00 L 261.00 43.50 L 262.00 43.50 L 262.50 44.00 L 263.00 44.50 L 263.50 45.00 L 264.00 45.50 L 264.50 46.00 L 265.00 46.50 L 266.00 46.50 L 266.50 47.00 L 267.00 47.50 L 267.50 48.00 L 268.00 48.50 L 268.50 49.00 L 269.00 49.50 L 270.00 49.50 L 270.50 50.00 L 271.00 50.50 L 271.50 51.00 L 272.00 51.50 L 272.50 52.00 L 273.00 52.50 L 273.50 53.00 L 274.00 53.50 L 274.50 54.00 L 275.00 54.50 L 275.50 55.00 L 276.00 55.50 L 277.00 55.50 L 277.50 56.00 L 278.00 56.50 L 278.50 57.00 L 279.00 57.50 L 279.50 58.00 L 280.00 58.50 L 280.50 59.00 L 281.00 59.50 L 281.50 60.00 L 282.00 60.50 L 282.50 61.00 L 283.00 61.50 L 283.50 62.00 L 284.00 62.50 L 284.50 63.00 L 285.00 63.50 L 285.50 64.00 L 286.00 64.50 L 286.50 65.00 L 287.00 65.50 L 287.50 66.00 L 287.50 67.00 L 288.00 67.50 L 288.50 68.00 L 289.00 68.50 L 289.50 69.00 L 290.00 69.50 L 290.50 70.00 L 291.00 70.50 L 291.50 71.00 L 292.00 71.50 L 292.50 72.00 L 293.00 72.50 L 293.50 73.00 L 293.50 74.00 L 294.00 74.50 L 294.50 75.00 L 295.00 75.50 L 295.50 76.00 L 296.00 76.50 L 296.50 77.00 L 297.00 77.50 L 297.50 78.00 L 297.50 79.00 L 298.00 79.50 L 298.50 80.00 L 299.00 80.50 L 299.50 81.00 L 300.00 81.50 L 300.50 82.00 L 301.00 82.50 L 301.50 83.00 L 301.50 84.00 L 302.00 84.50 L 302.50 85.00 L 302.50 86.00 L 303.00 86.50 L 303.50 87.00 L 304.00 87.50 L 304.50 88.00 L 304.50 89.00 L 305.00 89.50 L 305.50 90.00 L 305.50 91.00 L 306.00 91.50 L 306.50 92.00 L 307.00 92.50 L 307.50 93.00 L 307.50 94.00 L 308.00 94.50 L 308.50 95.00 L 308.50 96.00 L 309.00 96.50 L 309.50 97.00 L 309.50 98.00 L 310.00 98.50 L 310.50 99.00 L 310.50 100.00 L 311.00 100.50 L 311.50 101.00 L 311.50 102.00 L 312.00 102.50 L 312.50 103.00 L 312.50 104.00 L 313.00 104.50 L 313.50 105.00 L 313.50 106.00 L 314.00 106.50 L 314.50 107.00 L 314.50 108.00 L 315.00 108.50 L 315.50 109.00 L 315.50 110.00 L 315.50 111.00 L 316.00 111.50 L 316.50 112.00 L 316.50 113.00 L 317.00 113.50 L 317.50 114.00 L 317.50 115.00 L 317.50 116.00 L 317.50 117.00 L 318.00 117.50 L 318.50 118.00 L 318.50 119.00 L 318.50 120.00 L 319.00 120.50 L 319.50 121.00 L 319.50 122.00 L 319.50 123.00 L 320.00 123.50 L 320.50 124.00 L 320.50 125.00 L 320.50 126.00 L 320.50 127.00 L 321.00 127.50 L 321.50 128.00 L 321.50 129.00 L 321.50 130.00 L 321.50 131.00 L 321.50 132.00 L 322.00 132.50 L 322.50 133.00 L 322.50 134.00 L 322.50 135.00 L 322.50 136.00 L 322.50 137.00 L 323.00 137.50 L 323.50 138.00 L 323.50 139.00 L 323.50 140.00 L 323.50 141.00 L 323.50 142.00 L 323.50 143.00 L 324.00 143.50 L 324.50 144.00 L 324.50 145.00 L 324.50 146.00 L 324.50 147.00 L 324.50 148.00 L 324.50 149.00 L 324.50 150.00 L 324.50 151.00 L 324.50 152.00 L 324.50 153.00 L 324.50 154.00 L 324.50 155.00 L 324.50 156.00 L 324.50 157.00 L 325.00 157.50 L 325.50 158.00 L 325.50 159.00 L 325.50 160.00 L 325.50 161.00 L 325.50 162.00 L 325.50 163.00 L 325.50 164.00 L 325.50 165.00 L 325.50 166.00 L 325.50 167.00 L 325.00 167.50 L 324.50 168.00 L 324.50 169.00 L 324.50 170.00 L 324.50 171.00 L 324.50 172.00 L 324.50 173.00 L 324.50 174.00 L 324.50 175.00 L 324.50 176.00 L 324.50 177.00 L 324.00 177.50 L 323.50 178.00 L 323.50 179.00 L 323.50 180.00 L 323.50 181.00 L 323.50 182.00 L 323.50 183.00 L 323.50 184.00 L 323.00 184.50 L 322.50 185.00 L 322.50 186.00 L 322.50 187.00 L 322.50 188.00 L 322.50 189.00 L 322.00 189.50 L 321.50 190.00 L 321.50 191.00 L 321.50 192.00 L 321.50 193.00 L 321.50 194.00 L 321.00 194.50 L 320.50 195.00 L 320.50 196.00 L 320.50 197.00 L 320.00 197.50 L 319.50 198.00 L 319.50 199.00 L 319.50 200.00 L 319.00 200.50 L 318.50 201.00 L 318.50 202.00 L 318.50 203.00 L 318.00 203.50 L 317.50 204.00 L 317.50 205.00 L 317.50 206.00 L 317.00 206.50 L 316.50 207.00 L 316.50 208.00 L 316.50 209.00 L 316.00 209.50 L 315.50 210.00 L 315.50 211.00 L 315.00 211.50 L 314.50 212.00 L 314.50 213.00 L 314.00 213.50 L 313.50 214.00 L 313.50 215.00 L 313.00 215.50 L 312.50 216.00 L 312.50 217.00 L 312.50 218.00 L 312.00 218.50 L 311.50 219.00 L 311.50 220.00 L 311.00 220.50 L 310.50 221.00 L 310.50 222.00 L 310.00 222.50 L 309.50 223.00 L 309.00 223.50 L 308.50 224.00 L 308.50 225.00 L 308.00 225.50 L 307.50 226.00 L 307.50 227.00 L 307.00 227.50 L 306.50 228.00 L 306.00 228.50 L 305.50 229.00 L 305.50 230.00 L 305.00 230.50 L 304.50 231.00 L 304.50 232.00 L 304.00 232.50 L 303.50 233.00 L 303.00 233.50 L 302.50 234.00 L 302.00 234.50 L 301.50 235.00 L 301.50 236.00 L 301.00 236.50 L 300.50 237.00 L 300.00 237.50 L 299.50 238.00 L 299.00 238.50 L 298.50 239.00 L 298.50 240.00 L 298.00 240.50 L 297.50 241.00 L 297.00 241.50 L 296.50 242.00 L 296.00 242.50 L 295.50 243.00 L 295.00 243.50 L 294.50 244.00 L 294.00 244.50 L 293.50 245.00 L 293.00 245.50 L 292.50 246.00 L 292.50 247.00 L 292.00 247.50 L 291.50 248.00 L 291.00 248.50 L 290.50 249.00 L 290.00 249.50 L 289.50 250.00 L 289.00 250.50 L 288.50 251.00 L 288.00 251.50 L 287.50 252.00 L 287.00 252.50 L 286.00 252.50 L 285.50 253.00 L 285.00 253.50 L 284.50 254.00 L 284.00 254.50 L 283.50 255.00 L 283.00 255.50 L 282.50 256.00 L 282.00 256.50 L 281.50 257.00 L 281.00 257.50 L 280.50 258.00 L 280.00 258.50 L 279.50 259.00 L 279.00 259.50 L 278.00 259.50 L 277.50 260.00 L 277.00 260.50 L 276.50 261.00 L 276.00 261.50 L 275.50 262.00 L 275.00 262.50 L 274.00 262.50 L 273.50 263.00 L 273.00 263.50 L 272.50 264.00 L 272.00 264.50 L 271.50 265.00 L 271.00 265.50 L 270.00 265.50 L 269.50 266.00 L 269.00 266.50 L 268.50 267.00 L 268.00 267.50 L 267.00 267.50 L 266.50 268.00 L 266.00 268.50 L 265.00 268.50 L 264.50 269.00 L 264.00 269.50 L 263.00 269.50 L 262.50 270.00 L 262.00 270.50 L 261.50 271.00 L 261.00 271.50 L 260.00 271.50 L 259.50 272.00 L 259.00 272.50 L 258.00 272.50 L 257.50 273.00 L 257.00 273.50 L 256.00 273.50 L 255.50 274.00 L 255.00 274.50 L 254.00 274.50 L 253.50 275.00 L 253.00 275.50 L 252.00 275.50 L 251.00 275.50 L 250.50 276.00 L 250.00 276.50 L 249.00 276.50 L 248.50 277.00 L 248.00 277.50 L 247.00 277.50 L 246.00 277.50 L 245.50 278.00 L 245.00 278.50 L 244.00 278.50 L 243.00 278.50 L 242.50 279.00 L 242.00 279.50 L 241.00 279.50 L 240.00 279.50 L 239.50 280.00 L 239.00 280.50 L 238.00 280.50 L 237.00 280.50 L 236.00 280.50 L 235.50 281.00 L 235.00 281.50 L 234.00 281.50 L 233.00 281.50 L 232.00 281.50 L 231.50 282.00 L 231.00 282.50 L 230.00 282.50 L 229.00 282.50 L 228.00 282.50 L 227.00 282.50 L 226.50 283.00 L 226.00 283.50 L 225.00 283.50 L 224.00 283.50 L 223.00 283.50 L 222.00 283.50 L 221.00 283.50 L 220.00 283.50 L 219.50 284.00 L 219.00 284.50 L 218.00 284.50 L 217.00 284.50 L 216.00 284.50 L 215.00 284.50 L 214.00 284.50 L 213.00 284.50 L 212.00 284.50 L 211.00 284.50 L 210.00 284.50 L 209.00 284.50 L 208.00 284.50 L 207.00 284.50 L 206.00 284.50 L 205.00 284.50 L 204.00 284.50 L 203.00 284.50 L 202.00 284.50 L 201.00 284.50 L 200.00 284.50 L 199.00 284.50 L 198.00 284.50 L 197.00 284.50 L 196.00 284.50 L 195.00 284.50 L 194.00 284.50 L 193.50 284.00 L 193.00 283.50 L 192.00 283.50 L 191.00 283.50 L 190.00 283.50 L 189.00 283.50 L 188.00 283.50 L 187.50 283.00 L 187.00 282.50 L 186.00 282.50 L 185.00 282.50 L 184.00 282.50 L 183.50 282.00 L 183.00 281.50 L 182.00 281.50 L 181.00 281.50 L 180.00 281.50 L 179.00 281.50 L 178.50 281.00 L 178.00 280.50 L 177.00 280.50 L 176.00 280.50 L 175.50 280.00 L 175.00 279.50 L 174.00 279.50 L 173.00 279.50 L 172.50 279.00 L 172.00 278.50 L 171.00 278.50 L 170.50 278.00 L 170.00 277.50 L 169.00 277.50 L 168.00 277.50 L 167.50 277.00 L 167.00 276.50 L 166.00 276.50 L 165.00 276.50 L 164.50 276.00 L 164.00 275.50 L 163.00 275.50 L 162.50 275.00 L 162.00 274.50 L 161.00 274.50 L 160.50 274.00 L 160.00 273.50 L 159.00 273.50 L 158.50 273.00 L 158.00 272.50 L 157.00 272.50 L 156.50 272.00 L 156.00 271.50 L 155.00 271.50 L 154.50 271.00 L 154.00 270.50 L 153.00 270.50 L 152.50 270.00 L 152.00 269.50 L 151.50 269.00 L 151.00 268.50 L 150.00 268.50 L 149.50 268.00 L 149.00 267.50 L 148.00 267.50 L 147.50 267.00 L 147.00 266.50 L 146.50 266.00 L 146.00 265.50 L 145.50 265.00 L 146.00 264.50 L 147.00 264.50 L 147.50 265.00 L 148.00 265.50 L 148.50 266.00 L 149.00 266.50 L 150.00 266.50 L 150.50 267.00 L 151.00 267.50 L 152.00 267.50 L 152.50 268.00 L 153.00 268.50 L 154.00 268.50 L 155.00 268.50 L 155.50 269.00 L 156.00 269.50 L 157.00 269.50 L 157.50 270.00 L 158.00 270.50 L 159.00 270.50 L 160.00 270.50 L 160.50 271.00 L 161.00 271.50 L 162.00 271.50 L 163.00 271.50 L 163.50 272.00 L 164.00 272.50 L 165.00 272.50 L 165.50 273.00 L 166.00 273.50 L 167.00 273.50 L 168.00 273.50 L 169.00 273.50 L 169.50 274.00 L 170.00 274.50 L 171.00 274.50 L 172.00 274.50 L 173.00 274.50 L 173.50 275.00 L 174.00 275.50 L 175.00 275.50 L 176.00 275.50 L 177.00 275.50 L 177.50 276.00 L 178.00 276.50 L 179.00 276.50 L 180.00 276.50 L 181.00 276.50 L 182.00 276.50 L 182.50 277.00 L 183.00 277.50 L 184.00 277.50 L 185.00 277.50 L 186.00 277.50 L 187.00 277.50 L 188.00 277.50 L 189.00 277.50 L 190.00 277.50 L 191.00 277.50 L 192.00 277.50 L 192.50 278.00 L 193.00 278.50 L 194.00 278.50 L 195.00 278.50 L 196.00 278.50 L 197.00 278.50 L 198.00 278.50 L 199.00 278.50 L 200.00 278.50 L 201.00 278.50 L 202.00 278.50 L 203.00 278.50 L 203.50 278.00 L 204.00 277.50 L 205.00 277.50 L 206.00 277.50 L 207.00 277.50 L 208.00 277.50 L 209.00 277.50 L 210.00 277.50 L 211.00 277.50 L 212.00 277.50 L 213.00 277.50 L 214.00 277.50 L 214.50 277.00 L 215.00 276.50 L 216.00 276.50 L 217.00 276.50 L 218.00 276.50 L 218.50 276.00 L 219.00 275.50 L 220.00 275.50 L 221.00 275.50 L 222.00 275.50 L 223.00 275.50 L 223.50 275.00 L 224.00 274.50 L 225.00 274.50 L 226.00 274.50 L 227.00 274.50 L 227.50 274.00 L 228.00 273.50 L 229.00 273.50 L 230.00 273.50 L 230.50 273.00 L 231.00 272.50 L 232.00 272.50 L 233.00 272.50 L 233.50 272.00 L 234.00 271.50 L 235.00 271.50 L 236.00 271.50 L 236.50 271.00 L 237.00 270.50 L 237.50 270.00 L 238.00 269.50 L 239.00 269.50 L 240.00 269.50 L 240.50 269.00 L 241.00 268.50 L 242.00 268.50 L 242.50 268.00 L 243.00 267.50 L 244.00 267.50 L 244.50 267.00 L 245.00 266.50 L 246.00 266.50 L 246.50 266.00 L 247.00 265.50 L 248.00 265.50 L 248.50 265.00 L 249.00 264.50 L 250.00 264.50 L 250.50 264.00 L 251.00 263.50 L 251.50 263.00 L 252.00 262.50 L 253.00 262.50 L 253.50 262.00 L 254.00 261.50 L 254.50 261.00 L 255.00 260.50 L 256.00 260.50 L 256.50 260.00 L 257.00 259.50 L 258.00 259.50 L 258.50 259.00 L 259.00 258.50 L 259.50 258.00 L 260.00 257.50 L 260.50 257.00 L 261.00 256.50 L 261.50 256.00 L 262.00 255.50 L 262.50 255.00 L 263.00 254.50 L 264.00 254.50 L 264.50 254.00 L 265.00 253.50 L 265.50 253.00 L 266.00 252.50 L 266.50 252.00 L 267.00 251.50 L 268.00 251.50 L 268.50 251.00 L 269.00 250.50 L 269.50 250.00 L 270.00 249.50 L 270.50 249.00 L 271.00 248.50 L 271.50 248.00 L 272.00 247.50 L 272.50 247.00 L 273.00 246.50 L 273.50 246.00 L 274.00 245.50 L 274.50 245.00 L 275.00 244.50 L 275.50 244.00 L 276.00 243.50 L 276.50 243.00 L 276.50 242.00 L 277.00 241.50 L 277.50 241.00 L 278.00 240.50 L 278.50 240.00 L 279.00 239.50 L 279.50 239.00 L 280.00 238.50 L 280.50 238.00 L 280.50 237.00 L 281.00 236.50 L 281.50 236.00 L 282.00 235.50 L 282.50 235.00 L 283.00 234.50 L 283.50 234.00 L 283.50 233.00 L 284.00 232.50 L 284.50 232.00 L 285.00 231.50 L 285.50 231.00 L 286.00 230.50 L 286.50 230.00 L 286.50 229.00 L 287.00 228.50 L 287.50 228.00 L 288.00 227.50 L 288.50 227.00 L 288.50 226.00 L 289.00 225.50 L 289.50 225.00 L 290.00 224.50 L 290.50 224.00 L 290.50 223.00 L 291.00 222.50 L 291.50 222.00 L 291.50 221.00 L 292.00 220.50 L 292.50 220.00 L 292.50 219.00 L 293.00 218.50 L 293.50 218.00 L 293.50 217.00 L 293.50 216.00 L 294.00 215.50 L 294.50 215.00 L 295.00 214.50 L 295.50 214.00 L 295.50 213.00 L 295.50 212.00 L 296.00 211.50 L 296.50 211.00 L 296.50 210.00 L 296.50 209.00 L 297.00 208.50 L 297.50 208.00 L 297.50 207.00 L 298.00 206.50 L 298.50 206.00 L 298.50 205.00 L 298.50 204.00 L 298.50 203.00 L 299.00 202.50 L 299.50 202.00 L 299.50 201.00 L 299.50 200.00 L 300.00 199.50 L 300.50 199.00 L 300.50 198.00 L 300.50 197.00 L 301.00 196.50 L 301.50 196.00 L 301.50 195.00 L 301.50 194.00 L 302.00 193.50 L 302.50 193.00 L 302.50 192.00 L 302.50 191.00 L 302.50 190.00 L 302.50 189.00 L 303.00 188.50 L 303.50 188.00 L 303.50 187.00 L 303.50 186.00 L 303.50 185.00 L 303.50 184.00 L 303.50 183.00 L 304.00 182.50 L 304.50 182.00 L 304.50 181.00 L 304.50 180.00 L 304.50 179.00 L 304.50 178.00 L 304.50 177.00 L 304.50 176.00 L 304.50 175.00 L 304.50 174.00 L 304.50 173.00 L 304.50 172.00 L 304.50 171.00 L 304.50 170.00 L 304.50 169.00 L 304.50 168.00 L 304.50 167.00 L 304.50 166.00 L 304.50 165.00 L 304.50 164.00 L 304.50 163.00 L 304.50 162.00 L 304.50 161.00 L 304.50 160.00 L 304.50 159.00 L 304.50 158.00 L 304.50 157.00 L 304.50 156.00 L 304.00 155.50 L 303.50 155.00 L 303.50 154.00 L 303.50 153.00 L 303.50 152.00 L 303.50 151.00 L 303.50 150.00 L 303.50 149.00 L 303.00 148.50 L 302.50 148.00 L 302.50 147.00 L 302.50 146.00 L 302.50 145.00 L 302.50 144.00 L 302.00 143.50 L 301.50 143.00 L 301.50 142.00 L 301.50 141.00 L 301.50 140.00 L 301.00 139.50 L 300.50 139.00 L 300.50 138.00 L 300.50 137.00 L 300.50 136.00 L 300.00 135.50 L 299.50 135.00 L 299.50 134.00 L 299.50 133.00 L 299.50 132.00 L 299.00 131.50 L 298.50 131.00 L 298.50 130.00 L 298.50 129.00 L 298.00 128.50 L 297.50 128.00 L 297.50 127.00 L 297.50 126.00 L 297.00 125.50 L 296.50 125.00 L 296.50 124.00 L 296.00 123.50 L 295.50 123.00 L 295.50 122.00 L 295.00 121.50 L 294.50 121.00 L 294.50 120.00 L 294.50 119.00 L 294.00 118.50 L 293.50 118.00 L 293.50 117.00 L 293.00 116.50 L 292.50 116.00 L 292.50 115.00 L 292.00 114.50 L 291.50 114.00 L 291.50 113.00 L 291.00 112.50 L 290.50 112.00 L 290.50 111.00 L 290.00 110.50 L 289.50 110.00 L 289.50 109.00 L 289.00 108.50 L 288.50 108.00 L 288.50 107.00 L 288.00 106.50 L 287.50 106.00 L 287.50 105.00 L 287.00 104.50 L 286.50 104.00 L 286.00 103.50 L 285.50 103.00 L 285.50 102.00 L 285.00 101.50 L 284.50 101.00 L 284.00 100.50 L 283.50 100.00 L 283.00 99.50 L 282.50 99.00 L 282.50 98.00 L 282.00 97.50 L 281.50 97.00 L 281.00 96.50 L 280.50 96.00 L 280.50 95.00 L 280.00 94.50 L 279.50 94.00 L 279.00 93.50 L 278.50 93.00 L 278.00 92.50 L 277.50 92.00 L 277.50 91.00 L 277.00 90.50 L 276.50 90.00 L 276.00 89.50 L 275.50 89.00 L 275.00 88.50 L 274.50 88.00 L 274.00 87.50 L 273.50 87.00 L 273.00 86.50 L 272.50 86.00 L 272.50 85.00 L 272.00 84.50 L 271.50 84.00 L 271.00 83.50 L 270.50 83.00 L 270.00 82.50 L 269.50 82.00 L 269.00 81.50 L 268.50 81.00 L 268.00 80.50 L 267.50 80.00 L 267.00 79.50 L 266.50 79.00 L 266.00 78.50 L 265.00 78.50 L 264.50 78.00 L 264.00 77.50 L 263.50 77.00 L 263.00 76.50 L 262.50 76.00 L 262.00 75.50 L 261.50 75.00 L 261.00 74.50 L 260.50 74.00 L 260.00 73.50 L 259.50 73.00 L 259.00 72.50 L 258.00 72.50 L 257.50 72.00 L 257.00 71.50 L 256.50 71.00 L 256.00 70.50 L 255.50 70.00 L 255.00 69.50 L 254.50 69.00 L 254.00 68.50 L 253.00 68.50 L 252.50 68.00 L 252.00 67.50 L 251.50 67.00 L 251.00 66.50 L 250.50 66.00 L 250.00 65.50 L 249.00 65.50 L 248.50 65.00 L 248.00 64.50 L 247.50 64.00 L 247.00 63.50 L 246.00 63.50 L 245.50 63.00 L 245.00 62.50 L 244.50 62.00 L 244.00 61.50 L 243.00 61.50 L 242.50 61.00 L 242.00 60.50 L 241.00 60.50 L 240.50 60.00 L 240.00 59.50 L 239.50 59.00 L 239.00 58.50 L 238.00 58.50 L 237.50 58.00 L 237.00 57.50 L 236.00 57.50 L 235.50 57.00 L 235.00 56.50 L 234.00 56.50 L 233.50 56.00 L 233.00 55.50 L 232.00 55.50 L 231.50 55.00 L 231.00 54.50 L 230.00 54.50 L 229.50 54.00 L 229.00 53.50 L 228.00 53.50 L 227.50 53.00 L 227.00 52.50 L 226.00 52.50 L 225.50 52.00 L 225.00 51.50 L 224.00 51.50 L 223.00 51.50 L 222.50 51.00 L 222.00 50.50 L 221.00 50.50 L 220.50 50.00 L 220.00 49.50 L 219.00 49.50 L 218.00 49.50 L 217.50 49.00 L 217.00 48.50 L 216.00 48.50 L 215.00 48.50 L 214.50 48.00 L 214.00 47.50 L 213.00 47.50 L 212.00 47.50 L 211.50 47.00 L 211.00 46.50 L 210.00 46.50 L 209.00 46.50 L 208.00 46.50 L 207.50 46.00 L 207.00 45.50 L 206.00 45.50 L 205.00 45.50 L 204.00 45.50 L 203.50 45.00 L 203.00 44.50 L 202.00 44.50 L 201.00 44.50 L 200.00 44.50 L 199.00 44.50 L 198.00 44.50 L 197.50 44.00 L 197.00 43.50 L 196.00 43.50 L 195.00 43.50 L 194.00 43.50 L 193.00 43.50 L 192.00 43.50 L 191.50 43.00 L 191.00 42.50 L 190.00 42.50 L 189.00 42.50 L 188.00 42.50 L 187.00 42.50 L 186.00 42.50 L 185.00 42.50 L 184.00 42.50 L 183.00 42.50 L 182.00 42.50 L 181.00 42.50 L 180.00 42.50 L 179.00 42.50 L 178.00 42.50 L 177.00 42.50 L 176.00 42.50 L 175.00 42.50 L 174.00 42.50 L 173.00 42.50 L 172.00 42.50 L 171.00 42.50 L 170.00 42.50 L 169.00 42.50 L 168.00 42.50 L 167.00 42.50 L 166.00 42.50 L 165.00 42.50 L 164.00 42.50 L 163.00 42.50 L 162.00 42.50 L 161.00 42.50 L 160.00 42.50 L 159.00 42.50 L 158.50 43.00 L 158.00 43.50 L 157.00 43.50 L 156.00 43.50 L 155.00 43.50 L 154.00 43.50 L 153.00 43.50 L 152.50 44.00 L 152.00 44.50 L 151.00 44.50 L 150.00 44.50 L 149.00 44.50 L 148.00 44.50 L 147.50 45.00 L 147.00 45.50 L 146.00 45.50 L 145.00 45.50 L 144.00 45.50 L 143.50 46.00 L 143.00 46.50 L 142.00 46.50 L 141.00 46.50 L 140.00 46.50 L 139.50 47.00 L 139.00 47.50 L 138.00 47.50 L 137.00 47.50 L 136.00 47.50 L 135.50 48.00 L 135.00 48.50 L 134.00 48.50 L 133.00 48.50 L 132.50 49.00 L 132.00 49.50 L 131.00 49.50 L 130.00 49.50 L 129.50 50.00 L 129.00 50.50 L 128.00 50.50 L 127.00 50.50 L 126.50 51.00 L 126.00 51.50 L 125.50 52.00 L 125.00 52.50 L 124.00 52.50 L 123.00 52.50 L 122.00 52.50 L 121.50 53.00 L 121.00 53.50 L 120.00 53.50 L 119.50 54.00 L 119.00 54.50 L 118.50 55.00 L 118.00 55.50 L 117.00 55.50 L 116.00 55.50 L 115.50 56.00 L 115.00 56.50 L 114.00 56.50 L 113.50 57.00 L 113.00 57.50 L 112.00 57.50 L 111.50 58.00 L 111.00 58.50 L 110.50 59.00 L 110.00 59.50 L 109.00 59.50 L 108.50 60.00 L 108.00 60.50 L 107.00 60.50 L 106.50 61.00 L 106.00 61.50 L 105.00 61.50 L 104.50 62.00 L 104.00 62.50 L 103.00 62.50 L 102.50 63.00 L 102.00 63.50 L 101.50 64.00 L 101.00 64.50 L 100.00 64.50 L 99.50 65.00 L 99.00 65.50 L 98.50 66.00 L 98.00 66.50 L 97.00 66.50 L 96.50 67.00 L 96.00 67.50 L 95.50 68.00 L 95.00 68.50 L 94.00 68.50 L 93.50 69.00 L 93.00 69.50 L 92.50 70.00 L 92.00 70.50 L 91.50 71.00 L 91.00 71.50 L 90.00 71.50 L 89.50 72.00 L 89.00 72.50 L 88.50 73.00 L 88.00 73.50 L 87.50 74.00 L 87.00 74.50 L 86.50 75.00 L 86.00 75.50 L 85.50 76.00 L 85.00 76.50 L 84.50 77.00 L 84.00 77.50 L 83.00 77.50 L 82.50 78.00 L 82.00 78.50 L 81.50 79.00 L 81.00 79.50 L 80.50 80.00 L 80.00 80.50 L 79.50 81.00 L 79.00 81.50 L 78.50 82.00 L 78.00 82.50 L 77.50 83.00 L 77.00 83.50 L 76.50 84.00 L 76.00 84.50 L 75.50 85.00 L 75.00 85.50 L 74.50 86.00 L 74.00 86.50 L 73.50 87.00 L 73.00 87.50 L 72.50 88.00 L 72.00 88.50 L 71.50 89.00 L 71.00 89.50 L 70.50 90.00 L 70.50 91.00 L 70.00 91.50 L 69.50 92.00 L 69.00 92.50 L 68.50 93.00 L 68.00 93.50 L 67.50 94.00 L 67.00 94.50 L 66.50 95.00 L 66.50 96.00 L 66.00 96.50 L 65.50 97.00 L 65.00 97.50 L 64.50 98.00 L 64.00 98.50 L 63.50 99.00 L 63.00 99.50 L 62.50 100.00 L 62.50 101.00 L 62.00 101.50 L 61.50 102.00 L 61.00 102.50 L 60.50 103.00 L 60.50 104.00 L 60.00 104.50 L 59.50 105.00 L 59.00 105.50 L 58.50 106.00 L 58.50 107.00 L 58.00 107.50 L 57.50 108.00 L 57.00 108.50 L 56.50 109.00 L 56.50 110.00 L 56.00 110.50 L 55.50 111.00 L 55.50 112.00 L 55.00 112.50 L 54.50 113.00 L 54.00 113.50 L 53.50 114.00 L 53.50 115.00 L 53.00 115.50 L 52.50 116.00 L 52.50 117.00 L 52.00 117.50 L 51.50 118.00 L 51.50 119.00 L 51.00 119.50 L 50.50 120.00 L 50.50 121.00 L 50.00 121.50 L 49.50 122.00 L 49.50 123.00 L 49.00 123.50 L 48.50 124.00 L 48.50 125.00 L 48.00 125.50 L 47.50 126.00 L 47.50 127.00 L 47.00 127.50 L 46.50 128.00 L 46.50 129.00 L 46.50 130.00 L 46.00 130.50 L 45.50 131.00 L 45.50 132.00 L 45.00 132.50 L 44.50 133.00 L 44.50 134.00 L 44.50 135.00 L 44.00 135.50 L 43.50 136.00 L 43.50 137.00 L 43.50 138.00 L 43.00 138.50 L 42.50 139.00 L 42.50 140.00 L 42.50 141.00 L 42.00 141.50 L 41.50 142.00 L 41.50 143.00 L 41.50 144.00 L 41.00 144.50 L 40.50 145.00 L 40.50 146.00 L 40.50 147.00 L 40.00 147.50 L 39.50 148.00 L 39.50 149.00 L 39.50 150.00 L 39.50 151.00 L 39.00 151.50 L 38.50 152.00 L 38.50 153.00 L 38.50 154.00 L 38.50 155.00 L 38.50 156.00 L 38.00 156.50 L 37.50 157.00 L 37.50 158.00 L 37.50 159.00 L 37.50 160.00 L 37.50 161.00 L 37.00 161.50 L 36.50 162.00 L 36.50 163.00 L 36.50 164.00 L 36.50 165.00 L 36.50 166.00 L 36.50 167.00 L 36.50 168.00 L 36.50 169.00 L 36.00 169.50 L 35.50 170.00 L 35.50 171.00 L 35.50 172.00 L 35.50 173.00 L 35.50 174.00 L 35.50 175.00 L 35.50 176.00 L 35.50 177.00 L 35.50 178.00 L 35.50 179.00 L 35.50 180.00 L 35.50 181.00 L 35.50 182.00 L 35.50 183.00 L 35.50 184.00 L 35.50 185.00 L 35.00 185.50 L 34.50 186.00 L 34.50 187.00 L 34.50 188.00 L 34.50 189.00 L 35.00 189.50 L 35.50 190.00 L 35.50 191.00 L 35.50 192.00 L 35.50 193.00 L 35.50 194.00 L 35.50 195.00 L 35.50 196.00 L 35.50 197.00 L 35.50 198.00 L 35.50 199.00 L 35.50 200.00 L 35.50 201.00 L 35.50 202.00 L 35.50 203.00 L 35.50 204.00 L 36.00 204.50 L 36.50 205.00 L 36.50 206.00 L 36.50 207.00 L 36.50 208.00 L 36.50 209.00 L 36.50 210.00 L 36.50 211.00 L 36.50 212.00 L 36.50 213.00 L 37.00 213.50 L 37.50 214.00 L 37.50 215.00 L 37.50 216.00 L 37.50 217.00 L 37.50 218.00 L 38.00 218.50 L 38.50 219.00 L 38.50 220.00 L 38.50 221.00 L 38.50 222.00 L 38.50 223.00 L 39.00 223.50 L 39.50 224.00 L 39.50 225.00 L 39.50 226.00 L 40.00 226.50 L 40.50 227.00 L 40.50 228.00 L 40.50 229.00 L 41.00 229.50 L 41.50 230.00 L 41.50 231.00 L 41.50 232.00 L 41.50 233.00 L 42.00 233.50 L 42.50 234.00 L 42.50 235.00 L 42.50 236.00 L 43.00 236.50 L 43.50 237.00 L 43.50 238.00 L 43.50 239.00 L 44.00 239.50 L 44.50 240.00 L 44.50 241.00 L 44.50 242.00 L 45.00 242.50 L 45.50 243.00 L 45.50 244.00 L 45.50 245.00 L 46.00 245.50 L 46.50 246.00 L 46.50 247.00 L 47.00 247.50 L 47.50 248.00 L 47.50 249.00 L 48.00 249.50 L 48.50 250.00 L 48.50 251.00 L 48.50 252.00 L 49.00 252.50 L 49.50 253.00 L 49.50 254.00 L 50.00 254.50 L 50.50 255.00 L 50.50 256.00 L 51.00 256.50 L 51.50 257.00 L 51.50 258.00 L 52.00 258.50 L 52.50 259.00 L 52.50 260.00 L 53.00 260.50 L 53.50 261.00 L 53.50 262.00 L 54.00 262.50 L 54.50 263.00 L 54.50 264.00 L 55.00 264.50 L 55.50 265.00 L 55.50 266.00 L 56.00 266.50 L 56.50 267.00 L 57.00 267.50 L 57.50 268.00 L 57.50 269.00 L 58.00 269.50 L 58.50 270.00 L 59.00 270.50 L 59.50 271.00 L 59.50 272.00 L 60.00 272.50 L 60.50 273.00 L 60.50 274.00 L 61.00 274.50 L 61.50 275.00 L 62.00 275.50 L 62.50 276.00 L 62.50 277.00 L 63.00 277.50 L 63.50 278.00 L 64.00 278.50 L 64.50 279.00 L 64.50 280.00 L 65.00 280.50 L 65.50 281.00 L 66.00 281.50 L 66.50 282.00 L 67.00 282.50 L 67.50 283.00 L 67.50 284.00 L 68.00 284.50 L 68.50 285.00 L 69.00 285.50 L 69.50 286.00 L 70.00 286.50 L 70.50 287.00 L 70.50 288.00 L 71.00 288.50 L 71.50 289.00 L 72.00 289.50 L 72.50 290.00 L 73.00 290.50 L 73.50 291.00 L 74.00 291.50 L 74.50 292.00 L 75.00 292.50 L 75.50 293.00 L 75.50 294.00 L 76.00 294.50 L 76.50 295.00 L 77.00 295.50 L 77.50 296.00 L 78.00 296.50 L 78.50 297.00 L 79.00 297.50 L 79.50 298.00 L 80.00 298.50 L 80.50 299.00 L 81.00 299.50 L 81.50 300.00 L 82.00 300.50 L 82.50 301.00 L 83.00 301.50 L 83.50 302.00 L 84.00 302.50 L 84.50 303.00 L 85.00 303.50 L 85.50 304.00 L 86.00 304.50 L 86.50 305.00 L 87.00 305.50 L 87.50 306.00 L 88.00 306.50 L 89.00 306.50 L 89.50 307.00 L 90.00 307.50 L 90.50 308.00 L 91.00 308.50 L 91.50 309.00 L 92.00 309.50 L 92.50 310.00 L 93.00 310.50 L 93.50 311.00 L 94.00 311.50 L 94.50 312.00 L 95.00 312.50 L 96.00 312.50 L 96.50 313.00 L 97.00 313.50 L 97.50 314.00 L 98.00 314.50 L 98.50 315.00 L 99.00 315.50 L 100.00 315.50 L 100.50 316.00 L 101.00 316.50 L 101.50 317.00 L 102.00 317.50 L 102.50 318.00 L 103.00 318.50 L 104.00 318.50 L 104.50 319.00 L 105.00 319.50 L 105.50 320.00 L 106.00 320.50 L 107.00 320.50 L 107.50 321.00 L 108.00 321.50 L 108.50 322.00 L 109.00 322.50 L 110.00 322.50 L 110.50 323.00 L 111.00 323.50 L 112.00 323.50 L 112.50 324.00 L 113.00 324.50 L 114.00 324.50 L 114.50 325.00 L 115.00 325.50 L 115.50 326.00 L 116.00 326.50 L 117.00 326.50 L 117.50 327.00 L 118.00 327.50 L 119.00 327.50 L 119.50 328.00 L 120.00 328.50 L 121.00 328.50 L 121.50 329.00 L 121.00 329.50 Z" />
    <path d="M 242.00 344.50 L 241.00 344.50 L 240.00 344.50 L 239.00 344.50 L 238.00 344.50 L 237.00 344.50 L 236.00 344.50 L 235.00 344.50 L 234.00 344.50 L 233.00 344.50 L 232.00 344.50 L 231.00 344.50 L 230.00 344.50 L 229.00 344.50 L 228.00 344.50 L 227.00 344.50 L 226.00 344.50 L 225.00 344.50 L 224.00 344.50 L 223.00 344.50 L 222.00 344.50 L 221.00 344.50 L 220.00 344.50 L 219.00 344.50 L 218.00 344.50 L 217.00 344.50 L 216.00 344.50 L 215.00 344.50 L 214.00 344.50 L 213.00 344.50 L 212.00 344.50 L 211.00 344.50 L 210.50 344.00 L 210.00 343.50 L 209.00 343.50 L 208.00 343.50 L 207.00 343.50 L 206.00 343.50 L 205.00 343.50 L 204.50 343.00 L 204.00 342.50 L 203.00 342.50 L 202.00 342.50 L 201.00 342.50 L 200.00 342.50 L 199.00 342.50 L 198.00 342.50 L 197.50 342.00 L 197.00 341.50 L 196.00 341.50 L 195.00 341.50 L 194.00 341.50 L 193.50 341.00 L 193.00 340.50 L 192.00 340.50 L 191.00 340.50 L 190.00 340.50 L 189.50 340.00 L 189.00 339.50 L 188.00 339.50 L 187.00 339.50 L 186.00 339.50 L 185.50 339.00 L 185.00 338.50 L 184.00 338.50 L 183.00 338.50 L 182.00 338.50 L 181.50 338.00 L 181.00 337.50 L 180.00 337.50 L 179.50 337.00 L 179.00 336.50 L 178.00 336.50 L 177.00 336.50 L 176.00 336.50 L 175.50 336.00 L 175.00 335.50 L 174.00 335.50 L 173.00 335.50 L 172.50 335.00 L 172.00 334.50 L 171.00 334.50 L 170.50 334.00 L 170.00 333.50 L 169.00 333.50 L 168.00 333.50 L 167.50 333.00 L 167.00 332.50 L 166.00 332.50 L 165.50 332.00 L 165.00 331.50 L 164.00 331.50 L 163.00 331.50 L 162.50 331.00 L 162.00 330.50 L 161.00 330.50 L 160.50 330.00 L 160.00 329.50 L 159.00 329.50 L 158.50 329.00 L 158.00 328.50 L 157.50 328.00 L 157.00 327.50 L 156.00 327.50 L 155.00 327.50 L 154.50 327.00 L 154.00 326.50 L 153.50 326.00 L 153.00 325.50 L 152.00 325.50 L 151.50 325.00 L 151.00 324.50 L 150.50 324.00 L 150.00 323.50 L 149.00 323.50 L 148.50 323.00 L 148.00 322.50 L 147.00 322.50 L 146.50 322.00 L 146.00 321.50 L 145.00 321.50 L 144.50 321.00 L 144.00 320.50 L 143.50 320.00 L 143.00 319.50 L 142.00 319.50 L 141.50 319.00 L 141.00 318.50 L 140.50 318.00 L 140.00 317.50 L 139.00 317.50 L 138.50 317.00 L 138.00 316.50 L 137.50 316.00 L 137.00 315.50 L 136.50 315.00 L 136.00 314.50 L 135.00 314.50 L 134.50 314.00 L 134.00 313.50 L 133.50 313.00 L 133.00 312.50 L 132.00 312.50 L 131.50 312.00 L 131.00 311.50 L 130.50 311.00 L 130.00 310.50 L 129.50 310.00 L 129.00 309.50 L 128.50 309.00 L 128.00 308.50 L 127.00 308.50 L 126.50 308.00 L 126.00 307.50 L 125.50 307.00 L 125.00 306.50 L 124.50 306.00 L 124.00 305.50 L 123.50 305.00 L 123.00 304.50 L 122.50 304.00 L 122.00 303.50 L 121.50 303.00 L 121.00 302.50 L 120.50 302.00 L 120.00 301.50 L 119.50 301.00 L 119.00 300.50 L 118.50 300.00 L 118.00 299.50 L 117.50 299.00 L 117.00 298.50 L 116.50 298.00 L 116.00 297.50 L 115.50 297.00 L 115.00 296.50 L 114.50 296.00 L 114.00 295.50 L 113.50 295.00 L 113.00 294.50 L 112.50 294.00 L 112.00 293.50 L 111.50 293.00 L 111.00 292.50 L 110.50 292.00 L 110.00 291.50 L 109.50 291.00 L 109.00 290.50 L 108.50 290.00 L 108.00 289.50 L 107.50 289.00 L 107.50 288.00 L 107.00 287.50 L 106.50 287.00 L 106.00 286.50 L 105.50 286.00 L 105.00 285.50 L 104.50 285.00 L 104.50 284.00 L 104.00 283.50 L 103.50 283.00 L 103.00 282.50 L 102.50 282.00 L 102.50 281.00 L 102.00 280.50 L 101.50 280.00 L 101.00 279.50 L 100.50 279.00 L 100.50 278.00 L 100.00 277.50 L 99.50 277.00 L 99.00 276.50 L 98.50 276.00 L 98.50 275.00 L 98.00 274.50 L 97.50 274.00 L 97.50 273.00 L 97.00 272.50 L 96.50 272.00 L 96.00 271.50 L 95.50 271.00 L 95.50 270.00 L 95.00 269.50 L 94.50 269.00 L 94.50 268.00 L 94.00 267.50 L 93.50 267.00 L 93.50 266.00 L 93.00 265.50 L 92.50 265.00 L 92.50 264.00 L 92.00 263.50 L 91.50 263.00 L 91.00 262.50 L 90.50 262.00 L 90.50 261.00 L 90.00 260.50 L 89.50 260.00 L 89.50 259.00 L 89.00 258.50 L 88.50 258.00 L 88.50 257.00 L 88.00 256.50 L 87.50 256.00 L 87.50 255.00 L 87.50 254.00 L 87.00 253.50 L 86.50 253.00 L 86.50 252.00 L 86.50 251.00 L 86.00 250.50 L 85.50 250.00 L 85.50 249.00 L 85.00 248.50 L 84.50 248.00 L 84.50 247.00 L 84.50 246.00 L 84.00 245.50 L 83.50 245.00 L 83.50 244.00 L 83.50 243.00 L 83.00 242.50 L 82.50 242.00 L 82.50 241.00 L 82.50 240.00 L 82.00 239.50 L 81.50 239.00 L 81.50 238.00 L 81.50 237.00 L 81.50 236.00 L 81.00 235.50 L 80.50 235.00 L 80.50 234.00 L 80.50 233.00 L 80.50 232.00 L 80.50 231.00 L 80.00 230.50 L 79.50 230.00 L 79.50 229.00 L 79.50 228.00 L 79.50 227.00 L 79.50 226.00 L 79.00 225.50 L 78.50 225.00 L 78.50 224.00 L 78.50 223.00 L 78.50 222.00 L 78.50 221.00 L 78.50 220.00 L 78.00 219.50 L 77.50 219.00 L 77.50 218.00 L 77.50 217.00 L 77.50 216.00 L 77.50 215.00 L 77.50 214.00 L 77.50 213.00 L 77.50 212.00 L 77.50 211.00 L 77.50 210.00 L 77.00 209.50 L 76.50 209.00 L 76.50 208.00 L 76.50 207.00 L 76.50 206.00 L 76.50 205.00 L 76.50 204.00 L 76.50 203.00 L 76.50 202.00 L 76.50 201.00 L 76.50 200.00 L 76.50 199.00 L 76.50 198.00 L 76.50 197.00 L 76.50 196.00 L 76.50 195.00 L 76.50 194.00 L 76.50 193.00 L 77.00 192.50 L 77.50 192.00 L 77.50 191.00 L 77.50 190.00 L 77.50 189.00 L 77.50 188.00 L 77.50 187.00 L 77.50 186.00 L 77.50 185.00 L 77.50 184.00 L 77.50 183.00 L 78.00 182.50 L 78.50 182.00 L 78.50 181.00 L 78.50 180.00 L 78.50 179.00 L 78.50 178.00 L 78.50 177.00 L 79.00 176.50 L 79.50 176.00 L 79.50 175.00 L 79.50 174.00 L 79.50 173.00 L 79.50 172.00 L 80.00 171.50 L 80.50 171.00 L 80.50 170.00 L 80.50 169.00 L 80.50 168.00 L 81.00 167.50 L 81.50 167.00 L 81.50 166.00 L 81.50 165.00 L 81.50 164.00 L 82.00 163.50 L 82.50 163.00 L 82.50 162.00 L 82.50 161.00 L 83.00 160.50 L 83.50 160.00 L 83.50 159.00 L 83.50 158.00 L 84.00 157.50 L 84.50 157.00 L 84.50 156.00 L 85.00 155.50 L 85.50 155.00 L 85.50 154.00 L 85.50 153.00 L 85.50 152.00 L 86.00 151.50 L 86.50 151.00 L 86.50 150.00 L 87.00 149.50 L 87.50 149.00 L 87.50 148.00 L 88.00 147.50 L 88.50 147.00 L 88.50 146.00 L 89.00 145.50 L 89.50 145.00 L 89.50 144.00 L 90.00 143.50 L 90.50 143.00 L 90.50 142.00 L 91.00 141.50 L 91.50 141.00 L 91.50 140.00 L 92.00 139.50 L 92.50 139.00 L 92.50 138.00 L 93.00 137.50 L 93.50 137.00 L 94.00 136.50 L 94.50 136.00 L 94.50 135.00 L 95.00 134.50 L 95.50 134.00 L 95.50 133.00 L 96.00 132.50 L 96.50 132.00 L 97.00 131.50 L 97.50 131.00 L 97.50 130.00 L 98.00 129.50 L 98.50 129.00 L 99.00 128.50 L 99.50 128.00 L 99.50 127.00 L 100.00 126.50 L 100.50 126.00 L 101.00 125.50 L 101.50 125.00 L 102.00 124.50 L 102.50 124.00 L 102.50 123.00 L 103.00 122.50 L 103.50 122.00 L 104.00 121.50 L 104.50 121.00 L 105.00 120.50 L 105.50 120.00 L 106.00 119.50 L 106.50 119.00 L 106.50 118.00 L 107.00 117.50 L 107.50 117.00 L 108.00 116.50 L 108.50 116.00 L 109.00 115.50 L 109.50 115.00 L 110.00 114.50 L 110.50 114.00 L 111.00 113.50 L 111.50 113.00 L 112.00 112.50 L 112.50 112.00 L 113.00 111.50 L 113.50 111.00 L 114.00 110.50 L 114.50 110.00 L 115.00 109.50 L 115.50 109.00 L 116.00 108.50 L 116.50 108.00 L 117.00 107.50 L 117.50 107.00 L 118.00 106.50 L 118.50 106.00 L 119.00 105.50 L 119.50 105.00 L 120.00 104.50 L 120.50 104.00 L 121.00 103.50 L 122.00 103.50 L 122.50 103.00 L 123.00 102.50 L 123.50 102.00 L 124.00 101.50 L 124.50 101.00 L 125.00 100.50 L 125.50 100.00 L 126.00 99.50 L 127.00 99.50 L 127.50 99.00 L 128.00 98.50 L 128.50 98.00 L 129.00 97.50 L 129.50 97.00 L 130.00 96.50 L 131.00 96.50 L 131.50 96.00 L 132.00 95.50 L 133.00 95.50 L 133.50 95.00 L 134.00 94.50 L 134.50 94.00 L 135.00 93.50 L 136.00 93.50 L 136.50 93.00 L 137.00 92.50 L 138.00 92.50 L 138.50 92.00 L 139.00 91.50 L 140.00 91.50 L 140.50 91.00 L 141.00 90.50 L 141.50 90.00 L 142.00 89.50 L 143.00 89.50 L 144.00 89.50 L 144.50 89.00 L 145.00 88.50 L 146.00 88.50 L 146.50 88.00 L 147.00 87.50 L 148.00 87.50 L 148.50 87.00 L 149.00 86.50 L 150.00 86.50 L 150.50 86.00 L 151.00 85.50 L 152.00 85.50 L 152.50 85.00 L 153.00 84.50 L 154.00 84.50 L 154.50 84.00 L 155.00 83.50 L 156.00 83.50 L 157.00 83.50 L 157.50 83.00 L 158.00 82.50 L 159.00 82.50 L 160.00 82.50 L 160.50 82.00 L 161.00 81.50 L 162.00 81.50 L 163.00 81.50 L 163.50 81.00 L 164.00 80.50 L 165.00 80.50 L 166.00 80.50 L 167.00 80.50 L 168.00 80.50 L 168.50 80.00 L 169.00 79.50 L 170.00 79.50 L 171.00 79.50 L 172.00 79.50 L 173.00 79.50 L 173.50 79.00 L 174.00 78.50 L 175.00 78.50 L 176.00 78.50 L 177.00 78.50 L 178.00 78.50 L 179.00 78.50 L 179.50 78.00 L 180.00 77.50 L 181.00 77.50 L 182.00 77.50 L 183.00 77.50 L 184.00 77.50 L 185.00 77.50 L 186.00 77.50 L 187.00 77.50 L 188.00 77.50 L 189.00 77.50 L 190.00 77.50 L 191.00 77.50 L 192.00 77.50 L 192.50 77.00 L 193.00 76.50 L 194.00 76.50 L 195.00 76.50 L 196.00 76.50 L 197.00 76.50 L 197.50 77.00 L 198.00 77.50 L 199.00 77.50 L 200.00 77.50 L 201.00 77.50 L 202.00 77.50 L 203.00 77.50 L 204.00 77.50 L 205.00 77.50 L 206.00 77.50 L 207.00 77.50 L 208.00 77.50 L 209.00 77.50 L 209.50 78.00 L 210.00 78.50 L 211.00 78.50 L 212.00 78.50 L 213.00 78.50 L 214.00 78.50 L 215.00 78.50 L 215.50 79.00 L 216.00 79.50 L 217.00 79.50 L 218.00 79.50 L 219.00 79.50 L 219.50 80.00 L 220.00 80.50 L 221.00 80.50 L 222.00 80.50 L 223.00 80.50 L 223.50 81.00 L 224.00 81.50 L 225.00 81.50 L 226.00 81.50 L 226.50 82.00 L 227.00 82.50 L 228.00 82.50 L 229.00 82.50 L 229.50 83.00 L 230.00 83.50 L 231.00 83.50 L 232.00 83.50 L 232.50 84.00 L 233.00 84.50 L 234.00 84.50 L 235.00 84.50 L 235.50 85.00 L 236.00 85.50 L 237.00 85.50 L 237.50 86.00 L 238.00 86.50 L 239.00 86.50 L 240.00 86.50 L 240.50 87.00 L 241.00 87.50 L 242.00 87.50 L 242.50 88.00 L 243.00 88.50 L 244.00 88.50 L 244.50 89.00 L 245.00 89.50 L 245.50 90.00 L 246.00 90.50 L 247.00 90.50 L 247.50 91.00 L 248.00 91.50 L 249.00 91.50 L 249.50 92.00 L 250.00 92.50 L 250.50 93.00 L 251.00 93.50 L 252.00 93.50 L 252.50 94.00 L 253.00 94.50 L 254.00 94.50 L 254.50 95.00 L 255.00 95.50 L 255.50 96.00 L 256.00 96.50 L 257.00 96.50 L 257.50 97.00 L 258.00 97.50 L 258.50 98.00 L 259.00 98.50 L 259.50 99.00 L 260.00 99.50 L 261.00 99.50 L 261.50 100.00 L 262.00 100.50 L 262.50 101.00 L 263.00 101.50 L 263.50 102.00 L 263.00 102.50 L 262.00 102.50 L 261.50 102.00 L 261.00 101.50 L 260.50 101.00 L 260.00 100.50 L 259.00 100.50 L 258.50 100.00 L 258.00 99.50 L 257.50 99.00 L 257.00 98.50 L 256.00 98.50 L 255.50 98.00 L 255.00 97.50 L 254.00 97.50 L 253.50 97.00 L 253.00 96.50 L 252.00 96.50 L 251.50 96.00 L 251.00 95.50 L 250.00 95.50 L 249.50 95.00 L 249.00 94.50 L 248.00 94.50 L 247.50 94.00 L 247.00 93.50 L 246.00 93.50 L 245.50 93.00 L 245.00 92.50 L 244.00 92.50 L 243.50 92.00 L 243.00 91.50 L 242.00 91.50 L 241.50 91.00 L 241.00 90.50 L 240.00 90.50 L 239.50 90.00 L 239.00 89.50 L 238.00 89.50 L 237.00 89.50 L 236.50 89.00 L 236.00 88.50 L 235.00 88.50 L 234.00 88.50 L 233.00 88.50 L 232.50 88.00 L 232.00 87.50 L 231.00 87.50 L 230.00 87.50 L 229.00 87.50 L 228.50 87.00 L 228.00 86.50 L 227.00 86.50 L 226.00 86.50 L 225.00 86.50 L 224.00 86.50 L 223.50 86.00 L 223.00 85.50 L 222.00 85.50 L 221.00 85.50 L 220.00 85.50 L 219.00 85.50 L 218.50 85.00 L 218.00 84.50 L 217.00 84.50 L 216.00 84.50 L 215.00 84.50 L 214.00 84.50 L 213.00 84.50 L 212.00 84.50 L 211.00 84.50 L 210.50 84.00 L 210.00 83.50 L 209.00 83.50 L 208.00 83.50 L 207.00 83.50 L 206.00 83.50 L 205.00 83.50 L 204.00 83.50 L 203.00 83.50 L 202.00 83.50 L 201.00 83.50 L 200.00 83.50 L 199.00 83.50 L 198.00 83.50 L 197.50 84.00 L 197.00 84.50 L 196.00 84.50 L 195.00 84.50 L 194.00 84.50 L 193.00 84.50 L 192.00 84.50 L 191.00 84.50 L 190.00 84.50 L 189.00 84.50 L 188.50 85.00 L 188.00 85.50 L 187.00 85.50 L 186.00 85.50 L 185.00 85.50 L 184.00 85.50 L 183.00 85.50 L 182.50 86.00 L 182.00 86.50 L 181.00 86.50 L 180.00 86.50 L 179.00 86.50 L 178.50 87.00 L 178.00 87.50 L 177.00 87.50 L 176.00 87.50 L 175.50 88.00 L 175.00 88.50 L 174.00 88.50 L 173.00 88.50 L 172.00 88.50 L 171.50 89.00 L 171.00 89.50 L 170.00 89.50 L 169.00 89.50 L 168.50 90.00 L 168.00 90.50 L 167.00 90.50 L 166.00 90.50 L 165.50 91.00 L 165.00 91.50 L 164.00 91.50 L 163.50 92.00 L 163.00 92.50 L 162.00 92.50 L 161.00 92.50 L 160.50 93.00 L 160.00 93.50 L 159.50 94.00 L 159.00 94.50 L 158.00 94.50 L 157.50 95.00 L 157.00 95.50 L 156.00 95.50 L 155.00 95.50 L 154.50 96.00 L 154.00 96.50 L 153.50 97.00 L 153.00 97.50 L 152.00 97.50 L 151.50 98.00 L 151.00 98.50 L 150.00 98.50 L 149.50 99.00 L 149.00 99.50 L 148.50 100.00 L 148.00 100.50 L 147.00 100.50 L 146.50 101.00 L 146.00 101.50 L 145.50 102.00 L 145.00 102.50 L 144.00 102.50 L 143.50 103.00 L 143.00 103.50 L 142.50 104.00 L 142.00 104.50 L 141.00 104.50 L 140.50 105.00 L 140.00 105.50 L 139.50 106.00 L 139.00 106.50 L 138.50 107.00 L 138.00 107.50 L 137.00 107.50 L 136.50 108.00 L 136.00 108.50 L 135.50 109.00 L 135.00 109.50 L 134.50 110.00 L 134.00 110.50 L 133.50 111.00 L 133.00 111.50 L 132.50 112.00 L 132.00 112.50 L 131.50 113.00 L 131.00 113.50 L 130.50 114.00 L 130.00 114.50 L 129.50 115.00 L 129.00 115.50 L 128.50 116.00 L 128.00 116.50 L 127.50 117.00 L 127.00 117.50 L 126.50 118.00 L 126.00 118.50 L 125.50 119.00 L 125.00 119.50 L 124.50 120.00 L 124.00 120.50 L 123.50 121.00 L 123.00 121.50 L 122.50 122.00 L 122.00 122.50 L 121.50 123.00 L 121.50 124.00 L 121.00 124.50 L 120.50 125.00 L 120.00 125.50 L 119.50 126.00 L 119.50 127.00 L 119.00 127.50 L 118.50 128.00 L 118.00 128.50 L 117.50 129.00 L 117.00 129.50 L 116.50 130.00 L 116.00 130.50 L 115.50 131.00 L 115.50 132.00 L 115.00 132.50 L 114.50 133.00 L 114.50 134.00 L 114.00 134.50 L 113.50 135.00 L 113.00 135.50 L 112.50 136.00 L 112.00 136.50 L 111.50 137.00 L 111.50 138.00 L 111.00 138.50 L 110.50 139.00 L 110.50 140.00 L 110.00 140.50 L 109.50 141.00 L 109.50 142.00 L 109.00 142.50 L 108.50 143.00 L 108.50 144.00 L 108.00 144.50 L 107.50 145.00 L 107.50 146.00 L 107.50 147.00 L 107.00 147.50 L 106.50 148.00 L 106.50 149.00 L 106.00 149.50 L 105.50 150.00 L 105.50 151.00 L 105.00 151.50 L 104.50 152.00 L 104.50 153.00 L 104.50 154.00 L 104.00 154.50 L 103.50 155.00 L 103.50 156.00 L 103.50 157.00 L 103.00 157.50 L 102.50 158.00 L 102.50 159.00 L 102.50 160.00 L 102.50 161.00 L 102.00 161.50 L 101.50 162.00 L 101.50 163.00 L 101.50 164.00 L 101.00 164.50 L 100.50 165.00 L 100.50 166.00 L 100.50 167.00 L 100.50 168.00 L 100.00 168.50 L 99.50 169.00 L 99.50 170.00 L 99.50 171.00 L 99.50 172.00 L 99.00 172.50 L 98.50 173.00 L 98.50 174.00 L 98.50 175.00 L 98.50 176.00 L 98.50 177.00 L 98.50 178.00 L 98.50 179.00 L 98.50 180.00 L 98.50 181.00 L 98.00 181.50 L 97.50 182.00 L 97.50 183.00 L 97.50 184.00 L 97.50 185.00 L 97.50 186.00 L 97.50 187.00 L 97.50 188.00 L 97.50 189.00 L 97.50 190.00 L 97.50 191.00 L 97.50 192.00 L 97.50 193.00 L 97.50 194.00 L 97.50 195.00 L 97.50 196.00 L 97.50 197.00 L 97.50 198.00 L 97.50 199.00 L 97.50 200.00 L 97.50 201.00 L 97.50 202.00 L 97.50 203.00 L 97.50 204.00 L 98.00 204.50 L 98.50 205.00 L 98.50 206.00 L 98.50 207.00 L 98.50 208.00 L 98.50 209.00 L 98.50 210.00 L 98.50 211.00 L 98.50 212.00 L 98.50 213.00 L 99.00 213.50 L 99.50 214.00 L 99.50 215.00 L 99.50 216.00 L 99.50 217.00 L 99.50 218.00 L 100.00 218.50 L 100.50 219.00 L 100.50 220.00 L 100.50 221.00 L 100.50 222.00 L 101.00 222.50 L 101.50 223.00 L 101.50 224.00 L 101.50 225.00 L 102.00 225.50 L 102.50 226.00 L 102.50 227.00 L 102.50 228.00 L 103.00 228.50 L 103.50 229.00 L 103.50 230.00 L 103.50 231.00 L 103.50 232.00 L 104.00 232.50 L 104.50 233.00 L 104.50 234.00 L 104.50 235.00 L 105.00 235.50 L 105.50 236.00 L 105.50 237.00 L 105.50 238.00 L 106.00 238.50 L 106.50 239.00 L 106.50 240.00 L 107.00 240.50 L 107.50 241.00 L 107.50 242.00 L 107.50 243.00 L 108.00 243.50 L 108.50 244.00 L 108.50 245.00 L 109.00 245.50 L 109.50 246.00 L 109.50 247.00 L 110.00 247.50 L 110.50 248.00 L 110.50 249.00 L 111.00 249.50 L 111.50 250.00 L 111.50 251.00 L 112.00 251.50 L 112.50 252.00 L 112.50 253.00 L 113.00 253.50 L 113.50 254.00 L 113.50 255.00 L 114.00 255.50 L 114.50 256.00 L 114.50 257.00 L 115.00 257.50 L 115.50 258.00 L 116.00 258.50 L 116.50 259.00 L 116.50 260.00 L 117.00 260.50 L 117.50 261.00 L 118.00 261.50 L 118.50 262.00 L 118.50 263.00 L 119.00 263.50 L 119.50 264.00 L 120.00 264.50 L 120.50 265.00 L 121.00 265.50 L 121.50 266.00 L 121.50 267.00 L 122.00 267.50 L 122.50 268.00 L 123.00 268.50 L 123.50 269.00 L 123.50 270.00 L 124.00 270.50 L 124.50 271.00 L 125.00 271.50 L 125.50 272.00 L 126.00 272.50 L 126.50 273.00 L 127.00 273.50 L 127.50 274.00 L 127.50 275.00 L 128.00 275.50 L 128.50 276.00 L 129.00 276.50 L 129.50 277.00 L 130.00 277.50 L 130.50 278.00 L 131.00 278.50 L 131.50 279.00 L 132.00 279.50 L 132.50 280.00 L 133.00 280.50 L 133.50 281.00 L 134.00 281.50 L 134.50 282.00 L 135.00 282.50 L 135.50 283.00 L 136.00 283.50 L 136.50 284.00 L 137.00 284.50 L 137.50 285.00 L 138.00 285.50 L 138.50 286.00 L 139.00 286.50 L 139.50 287.00 L 140.00 287.50 L 140.50 288.00 L 141.00 288.50 L 142.00 288.50 L 142.50 289.00 L 143.00 289.50 L 143.50 290.00 L 144.00 290.50 L 144.50 291.00 L 145.00 291.50 L 145.50 292.00 L 146.00 292.50 L 147.00 292.50 L 147.50 293.00 L 148.00 293.50 L 148.50 294.00 L 149.00 294.50 L 149.50 295.00 L 150.00 295.50 L 151.00 295.50 L 151.50 296.00 L 152.00 296.50 L 152.50 297.00 L 153.00 297.50 L 153.50 298.00 L 154.00 298.50 L 155.00 298.50 L 155.50 299.00 L 156.00 299.50 L 156.50 300.00 L 157.00 300.50 L 158.00 300.50 L 158.50 301.00 L 159.00 301.50 L 160.00 301.50 L 160.50 302.00 L 161.00 302.50 L 162.00 302.50 L 162.50 303.00 L 163.00 303.50 L 163.50 304.00 L 164.00 304.50 L 165.00 304.50 L 165.50 305.00 L 166.00 305.50 L 167.00 305.50 L 167.50 306.00 L 168.00 306.50 L 169.00 306.50 L 169.50 307.00 L 170.00 307.50 L 171.00 307.50 L 171.50 308.00 L 172.00 308.50 L 173.00 308.50 L 173.50 309.00 L 174.00 309.50 L 175.00 309.50 L 176.00 309.50 L 176.50 310.00 L 177.00 310.50 L 178.00 310.50 L 179.00 310.50 L 179.50 311.00 L 180.00 311.50 L 181.00 311.50 L 182.00 311.50 L 182.50 312.00 L 183.00 312.50 L 184.00 312.50 L 184.50 313.00 L 185.00 313.50 L 186.00 313.50 L 187.00 313.50 L 188.00 313.50 L 188.50 314.00 L 189.00 314.50 L 190.00 314.50 L 190.50 315.00 L 191.00 315.50 L 192.00 315.50 L 193.00 315.50 L 194.00 315.50 L 194.50 316.00 L 195.00 316.50 L 196.00 316.50 L 197.00 316.50 L 198.00 316.50 L 198.50 317.00 L 199.00 317.50 L 200.00 317.50 L 201.00 317.50 L 202.00 317.50 L 202.50 318.00 L 203.00 318.50 L 204.00 318.50 L 205.00 318.50 L 206.00 318.50 L 207.00 318.50 L 208.00 318.50 L 209.00 318.50 L 209.50 319.00 L 210.00 319.50 L 211.00 319.50 L 212.00 319.50 L 213.00 319.50 L 214.00 319.50 L 215.00 319.50 L 216.00 319.50 L 217.00 319.50 L 218.00 319.50 L 219.00 319.50 L 220.00 319.50 L 221.00 319.50 L 222.00 319.50 L 223.00 319.50 L 223.50 320.00 L 224.00 320.50 L 225.00 320.50 L 226.00 320.50 L 227.00 320.50 L 228.00 320.50 L 229.00 320.50 L 230.00 320.50 L 230.50 320.00 L 231.00 319.50 L 232.00 319.50 L 233.00 319.50 L 234.00 319.50 L 235.00 319.50 L 236.00 319.50 L 237.00 319.50 L 238.00 319.50 L 239.00 319.50 L 240.00 319.50 L 241.00 319.50 L 242.00 319.50 L 243.00 319.50 L 244.00 319.50 L 244.50 319.00 L 245.00 318.50 L 246.00 318.50 L 247.00 318.50 L 248.00 318.50 L 249.00 318.50 L 250.00 318.50 L 251.00 318.50 L 251.50 318.00 L 252.00 317.50 L 253.00 317.50 L 254.00 317.50 L 255.00 317.50 L 256.00 317.50 L 257.00 317.50 L 257.50 317.00 L 258.00 316.50 L 259.00 316.50 L 260.00 316.50 L 261.00 316.50 L 261.50 316.00 L 262.00 315.50 L 263.00 315.50 L 264.00 315.50 L 265.00 315.50 L 265.50 315.00 L 266.00 314.50 L 267.00 314.50 L 267.50 314.00 L 268.00 313.50 L 269.00 313.50 L 270.00 313.50 L 270.50 313.00 L 271.00 312.50 L 272.00 312.50 L 273.00 312.50 L 273.50 312.00 L 274.00 311.50 L 275.00 311.50 L 276.00 311.50 L 276.50 311.00 L 277.00 310.50 L 278.00 310.50 L 279.00 310.50 L 279.50 310.00 L 280.00 309.50 L 281.00 309.50 L 281.50 309.00 L 282.00 308.50 L 283.00 308.50 L 284.00 308.50 L 284.50 308.00 L 285.00 307.50 L 286.00 307.50 L 286.50 307.00 L 287.00 306.50 L 288.00 306.50 L 288.50 306.00 L 289.00 305.50 L 290.00 305.50 L 290.50 305.00 L 291.00 304.50 L 292.00 304.50 L 292.50 304.00 L 293.00 303.50 L 294.00 303.50 L 294.50 303.00 L 295.00 302.50 L 296.00 302.50 L 296.50 302.00 L 297.00 301.50 L 297.50 301.00 L 298.00 300.50 L 299.00 300.50 L 299.50 300.00 L 300.00 299.50 L 300.50 299.00 L 301.00 298.50 L 302.00 298.50 L 302.50 298.00 L 303.00 297.50 L 303.50 297.00 L 304.00 296.50 L 304.50 296.00 L 305.00 295.50 L 306.00 295.50 L 306.50 295.00 L 307.00 294.50 L 307.50 294.00 L 308.00 293.50 L 309.00 293.50 L 309.50 293.00 L 310.00 292.50 L 310.50 292.00 L 311.00 291.50 L 311.50 291.00 L 312.00 290.50 L 313.00 290.50 L 313.50 290.00 L 314.00 289.50 L 314.50 289.00 L 315.00 288.50 L 315.50 288.00 L 316.00 287.50 L 316.50 287.00 L 317.00 286.50 L 317.50 286.00 L 318.00 285.50 L 318.50 285.00 L 319.00 284.50 L 320.00 284.50 L 320.50 284.00 L 321.00 283.50 L 321.50 283.00 L 322.00 282.50 L 322.50 282.00 L 323.00 281.50 L 323.50 281.00 L 324.00 280.50 L 324.50 280.00 L 325.00 279.50 L 325.50 279.00 L 325.50 278.00 L 326.00 277.50 L 326.50 277.00 L 327.00 276.50 L 327.50 276.00 L 328.00 275.50 L 329.00 275.50 L 329.50 275.00 L 329.50 274.00 L 330.00 273.50 L 330.50 273.00 L 331.00 272.50 L 331.50 272.00 L 332.00 271.50 L 332.50 271.00 L 332.50 270.00 L 333.00 269.50 L 333.50 269.00 L 334.00 268.50 L 334.50 268.00 L 335.00 267.50 L 335.50 267.00 L 336.00 266.50 L 336.50 266.00 L 337.00 265.50 L 337.50 265.00 L 337.50 264.00 L 338.00 263.50 L 338.50 263.00 L 339.00 262.50 L 339.50 262.00 L 339.50 261.00 L 340.00 260.50 L 340.50 260.00 L 341.00 259.50 L 341.50 259.00 L 341.50 258.00 L 342.00 257.50 L 342.50 257.00 L 343.00 256.50 L 343.50 256.00 L 343.50 255.00 L 344.00 254.50 L 344.50 254.00 L 344.50 253.00 L 345.00 252.50 L 345.50 252.00 L 346.00 251.50 L 346.50 251.00 L 346.50 250.00 L 347.00 249.50 L 347.50 249.00 L 348.00 248.50 L 348.50 248.00 L 348.50 247.00 L 349.00 246.50 L 349.50 246.00 L 349.50 245.00 L 350.00 244.50 L 350.50 244.00 L 350.50 243.00 L 351.00 242.50 L 351.50 242.00 L 351.50 241.00 L 352.00 240.50 L 352.50 240.00 L 352.50 239.00 L 352.50 238.00 L 353.00 237.50 L 353.50 237.00 L 354.00 236.50 L 354.50 236.00 L 354.50 235.00 L 355.00 234.50 L 355.50 234.00 L 355.50 233.00 L 355.50 232.00 L 356.00 231.50 L 356.50 231.00 L 356.50 230.00 L 356.50 229.00 L 357.00 228.50 L 357.50 228.00 L 357.50 227.00 L 357.50 226.00 L 358.00 225.50 L 358.50 225.00 L 358.50 224.00 L 359.00 223.50 L 359.50 223.00 L 359.50 222.00 L 359.50 221.00 L 359.50 220.00 L 360.00 219.50 L 360.50 219.00 L 360.50 218.00 L 360.50 217.00 L 361.00 216.50 L 361.50 216.00 L 361.50 215.00 L 361.50 214.00 L 361.50 213.00 L 362.00 212.50 L 362.50 212.00 L 362.50 211.00 L 362.50 210.00 L 363.00 209.50 L 363.50 209.00 L 363.50 208.00 L 363.50 207.00 L 363.50 206.00 L 364.00 205.50 L 364.50 205.00 L 364.50 204.00 L 364.50 203.00 L 364.50 202.00 L 364.50 201.00 L 365.00 200.50 L 365.50 200.00 L 365.50 199.00 L 365.50 198.00 L 365.50 197.00 L 365.50 196.00 L 365.50 195.00 L 365.50 194.00 L 366.00 193.50 L 366.50 193.00 L 366.50 192.00 L 366.50 191.00 L 366.50 190.00 L 366.50 189.00 L 366.50 188.00 L 366.50 187.00 L 366.50 186.00 L 366.50 185.00 L 366.50 184.00 L 366.50 183.00 L 367.00 182.50 L 367.50 182.00 L 367.50 181.00 L 367.50 180.00 L 367.50 179.00 L 367.50 178.00 L 367.50 177.00 L 367.50 176.00 L 367.50 175.00 L 367.50 174.00 L 367.50 173.00 L 367.50 172.00 L 367.50 171.00 L 367.50 170.00 L 367.50 169.00 L 367.50 168.00 L 367.50 167.00 L 367.50 166.00 L 367.00 165.50 L 366.50 165.00 L 366.50 164.00 L 366.50 163.00 L 366.50 162.00 L 366.50 161.00 L 366.50 160.00 L 366.50 159.00 L 366.50 158.00 L 366.50 157.00 L 366.50 156.00 L 366.50 155.00 L 366.50 154.00 L 366.00 153.50 L 365.50 153.00 L 365.50 152.00 L 365.50 151.00 L 365.50 150.00 L 365.50 149.00 L 365.50 148.00 L 365.50 147.00 L 365.50 146.00 L 365.00 145.50 L 364.50 145.00 L 364.50 144.00 L 364.50 143.00 L 364.50 142.00 L 364.00 141.50 L 363.50 141.00 L 363.50 140.00 L 363.50 139.00 L 363.50 138.00 L 363.00 137.50 L 362.50 137.00 L 362.50 136.00 L 362.50 135.00 L 362.50 134.00 L 362.50 133.00 L 362.00 132.50 L 361.50 132.00 L 361.50 131.00 L 361.50 130.00 L 361.00 129.50 L 360.50 129.00 L 360.50 128.00 L 360.50 127.00 L 360.00 126.50 L 359.50 126.00 L 359.50 125.00 L 359.50 124.00 L 359.00 123.50 L 358.50 123.00 L 358.50 122.00 L 358.50 121.00 L 358.00 120.50 L 357.50 120.00 L 357.50 119.00 L 357.50 118.00 L 357.00 117.50 L 356.50 117.00 L 356.50 116.00 L 356.00 115.50 L 355.50 115.00 L 355.50 114.00 L 355.50 113.00 L 355.00 112.50 L 354.50 112.00 L 354.50 111.00 L 354.50 110.00 L 354.00 109.50 L 353.50 109.00 L 353.50 108.00 L 353.00 107.50 L 352.50 107.00 L 352.50 106.00 L 352.00 105.50 L 351.50 105.00 L 351.50 104.00 L 351.00 103.50 L 350.50 103.00 L 350.50 102.00 L 350.00 101.50 L 349.50 101.00 L 349.50 100.00 L 349.00 99.50 L 348.50 99.00 L 348.00 98.50 L 347.50 98.00 L 347.50 97.00 L 347.50 96.00 L 347.00 95.50 L 346.50 95.00 L 346.00 94.50 L 345.50 94.00 L 345.50 93.00 L 345.00 92.50 L 344.50 92.00 L 344.00 91.50 L 343.50 91.00 L 343.50 90.00 L 343.00 89.50 L 342.50 89.00 L 342.50 88.00 L 342.00 87.50 L 341.50 87.00 L 341.00 86.50 L 340.50 86.00 L 340.50 85.00 L 340.00 84.50 L 339.50 84.00 L 339.00 83.50 L 338.50 83.00 L 338.50 82.00 L 338.00 81.50 L 337.50 81.00 L 337.00 80.50 L 336.50 80.00 L 336.00 79.50 L 335.50 79.00 L 335.50 78.00 L 335.00 77.50 L 334.50 77.00 L 334.00 76.50 L 333.50 76.00 L 333.00 75.50 L 332.50 75.00 L 332.50 74.00 L 332.00 73.50 L 331.50 73.00 L 331.00 72.50 L 330.50 72.00 L 330.00 71.50 L 329.50 71.00 L 329.00 70.50 L 328.50 70.00 L 328.00 69.50 L 327.50 69.00 L 327.00 68.50 L 326.50 68.00 L 326.50 67.00 L 326.00 66.50 L 325.50 66.00 L 325.00 65.50 L 324.50 65.00 L 324.00 64.50 L 323.50 64.00 L 323.00 63.50 L 322.50 63.00 L 322.00 62.50 L 321.50 62.00 L 321.00 61.50 L 320.50 61.00 L 320.00 60.50 L 319.50 60.00 L 319.00 59.50 L 318.50 59.00 L 318.00 58.50 L 317.50 58.00 L 317.00 57.50 L 316.50 57.00 L 316.00 56.50 L 315.50 56.00 L 315.00 55.50 L 314.00 55.50 L 313.50 55.00 L 313.00 54.50 L 312.50 54.00 L 312.00 53.50 L 311.50 53.00 L 311.00 52.50 L 310.50 52.00 L 310.00 51.50 L 309.50 51.00 L 309.00 50.50 L 308.50 50.00 L 308.00 49.50 L 307.00 49.50 L 306.50 49.00 L 306.00 48.50 L 305.50 48.00 L 305.00 47.50 L 304.50 47.00 L 304.00 46.50 L 303.00 46.50 L 302.50 46.00 L 302.00 45.50 L 301.50 45.00 L 301.00 44.50 L 300.50 44.00 L 300.00 43.50 L 299.50 43.00 L 299.00 42.50 L 298.00 42.50 L 297.50 42.00 L 297.00 41.50 L 296.00 41.50 L 295.50 41.00 L 295.00 40.50 L 294.50 40.00 L 294.00 39.50 L 293.00 39.50 L 292.50 39.00 L 292.00 38.50 L 291.50 38.00 L 291.00 37.50 L 290.00 37.50 L 289.50 37.00 L 289.00 36.50 L 288.50 36.00 L 288.00 35.50 L 287.00 35.50 L 286.50 35.00 L 286.00 34.50 L 285.00 34.50 L 284.50 34.00 L 284.00 33.50 L 283.50 33.00 L 284.00 32.50 L 285.00 32.50 L 285.50 33.00 L 286.00 33.50 L 287.00 33.50 L 288.00 33.50 L 288.50 34.00 L 289.00 34.50 L 290.00 34.50 L 290.50 35.00 L 291.00 35.50 L 291.50 36.00 L 292.00 36.50 L 293.00 36.50 L 293.50 37.00 L 294.00 37.50 L 295.00 37.50 L 295.50 38.00 L 296.00 38.50 L 297.00 38.50 L 298.00 38.50 L 298.50 39.00 L 299.00 39.50 L 300.00 39.50 L 300.50 40.00 L 301.00 40.50 L 302.00 40.50 L 302.50 41.00 L 303.00 41.50 L 303.50 42.00 L 304.00 42.50 L 305.00 42.50 L 305.50 43.00 L 306.00 43.50 L 307.00 43.50 L 307.50 44.00 L 308.00 44.50 L 308.50 45.00 L 309.00 45.50 L 310.00 45.50 L 310.50 46.00 L 311.00 46.50 L 311.50 47.00 L 312.00 47.50 L 313.00 47.50 L 313.50 48.00 L 314.00 48.50 L 314.50 49.00 L 315.00 49.50 L 316.00 49.50 L 316.50 50.00 L 317.00 50.50 L 317.50 51.00 L 318.00 51.50 L 319.00 51.50 L 319.50 52.00 L 320.00 52.50 L 320.50 53.00 L 321.00 53.50 L 321.50 54.00 L 322.00 54.50 L 322.50 55.00 L 323.00 55.50 L 324.00 55.50 L 324.50 56.00 L 325.00 56.50 L 325.50 57.00 L 326.00 57.50 L 326.50 58.00 L 327.00 58.50 L 327.50 59.00 L 328.00 59.50 L 329.00 59.50 L 329.50 60.00 L 330.00 60.50 L 330.50 61.00 L 331.00 61.50 L 331.50 62.00 L 332.00 62.50 L 332.50 63.00 L 333.00 63.50 L 333.50 64.00 L 334.00 64.50 L 334.50 65.00 L 335.00 65.50 L 335.50 66.00 L 336.00 66.50 L 336.50 67.00 L 337.00 67.50 L 337.50 68.00 L 338.00 68.50 L 338.50 69.00 L 339.00 69.50 L 339.50 70.00 L 340.00 70.50 L 340.50 71.00 L 341.00 71.50 L 341.50 72.00 L 341.50 73.00 L 342.00 73.50 L 342.50 74.00 L 343.00 74.50 L 343.50 75.00 L 344.00 75.50 L 344.50 76.00 L 345.00 76.50 L 345.50 77.00 L 346.00 77.50 L 346.50 78.00 L 347.00 78.50 L 347.50 79.00 L 348.00 79.50 L 348.50 80.00 L 348.50 81.00 L 349.00 81.50 L 349.50 82.00 L 350.00 82.50 L 350.50 83.00 L 351.00 83.50 L 351.50 84.00 L 352.00 84.50 L 352.50 85.00 L 352.50 86.00 L 353.00 86.50 L 353.50 87.00 L 354.00 87.50 L 354.50 88.00 L 354.50 89.00 L 355.00 89.50 L 355.50 90.00 L 356.00 90.50 L 356.50 91.00 L 357.00 91.50 L 357.50 92.00 L 357.50 93.00 L 358.00 93.50 L 358.50 94.00 L 358.50 95.00 L 359.00 95.50 L 359.50 96.00 L 360.00 96.50 L 360.50 97.00 L 360.50 98.00 L 361.00 98.50 L 361.50 99.00 L 361.50 100.00 L 362.00 100.50 L 362.50 101.00 L 363.00 101.50 L 363.50 102.00 L 363.50 103.00 L 364.00 103.50 L 364.50 104.00 L 364.50 105.00 L 365.00 105.50 L 365.50 106.00 L 365.50 107.00 L 366.00 107.50 L 366.50 108.00 L 366.50 109.00 L 367.00 109.50 L 367.50 110.00 L 368.00 110.50 L 368.50 111.00 L 368.50 112.00 L 368.50 113.00 L 369.00 113.50 L 369.50 114.00 L 369.50 115.00 L 370.00 115.50 L 370.50 116.00 L 371.00 116.50 L 371.50 117.00 L 371.50 118.00 L 371.50 119.00 L 372.00 119.50 L 372.50 120.00 L 372.50 121.00 L 373.00 121.50 L 373.50 122.00 L 373.50 123.00 L 374.00 123.50 L 374.50 124.00 L 374.50 125.00 L 374.50 126.00 L 375.00 126.50 L 375.50 127.00 L 375.50 128.00 L 375.50 129.00 L 376.00 129.50 L 376.50 130.00 L 376.50 131.00 L 376.50 132.00 L 376.50 133.00 L 377.00 133.50 L 377.50 134.00 L 377.50 135.00 L 377.50 136.00 L 377.50 137.00 L 378.00 137.50 L 378.50 138.00 L 378.50 139.00 L 378.50 140.00 L 379.00 140.50 L 379.50 141.00 L 379.50 142.00 L 379.50 143.00 L 380.00 143.50 L 380.50 144.00 L 380.50 145.00 L 380.50 146.00 L 380.50 147.00 L 381.00 147.50 L 381.50 148.00 L 381.50 149.00 L 381.50 150.00 L 381.50 151.00 L 381.50 152.00 L 382.00 152.50 L 382.50 153.00 L 382.50 154.00 L 382.50 155.00 L 382.50 156.00 L 382.50 157.00 L 383.00 157.50 L 383.50 158.00 L 383.50 159.00 L 383.50 160.00 L 383.50 161.00 L 383.50 162.00 L 383.50 163.00 L 383.50 164.00 L 384.00 164.50 L 384.50 165.00 L 384.50 166.00 L 384.50 167.00 L 384.50 168.00 L 384.50 169.00 L 384.50 170.00 L 384.50 171.00 L 384.50 172.00 L 384.50 173.00 L 384.50 174.00 L 384.50 175.00 L 384.50 176.00 L 384.50 177.00 L 384.50 178.00 L 384.50 179.00 L 384.50 180.00 L 384.50 181.00 L 384.50 182.00 L 384.50 183.00 L 384.50 184.00 L 384.50 185.00 L 384.50 186.00 L 384.50 187.00 L 384.50 188.00 L 384.50 189.00 L 384.50 190.00 L 384.50 191.00 L 384.50 192.00 L 384.50 193.00 L 384.50 194.00 L 384.50 195.00 L 384.50 196.00 L 384.50 197.00 L 384.50 198.00 L 384.50 199.00 L 384.50 200.00 L 384.50 201.00 L 384.00 201.50 L 383.50 202.00 L 383.50 203.00 L 383.50 204.00 L 383.50 205.00 L 383.50 206.00 L 383.50 207.00 L 383.50 208.00 L 383.00 208.50 L 382.50 209.00 L 382.50 210.00 L 382.50 211.00 L 382.50 212.00 L 382.50 213.00 L 382.00 213.50 L 381.50 214.00 L 381.50 215.00 L 381.50 216.00 L 381.50 217.00 L 381.50 218.00 L 381.50 219.00 L 381.00 219.50 L 380.50 220.00 L 380.50 221.00 L 380.50 222.00 L 380.50 223.00 L 380.00 223.50 L 379.50 224.00 L 379.50 225.00 L 379.50 226.00 L 379.50 227.00 L 379.00 227.50 L 378.50 228.00 L 378.50 229.00 L 378.50 230.00 L 378.50 231.00 L 378.00 231.50 L 377.50 232.00 L 377.50 233.00 L 377.50 234.00 L 377.00 234.50 L 376.50 235.00 L 376.50 236.00 L 376.50 237.00 L 376.00 237.50 L 375.50 238.00 L 375.50 239.00 L 375.50 240.00 L 375.00 240.50 L 374.50 241.00 L 374.50 242.00 L 374.00 242.50 L 373.50 243.00 L 373.50 244.00 L 373.50 245.00 L 373.00 245.50 L 372.50 246.00 L 372.50 247.00 L 372.00 247.50 L 371.50 248.00 L 371.50 249.00 L 371.00 249.50 L 370.50 250.00 L 370.50 251.00 L 370.00 251.50 L 369.50 252.00 L 369.50 253.00 L 369.00 253.50 L 368.50 254.00 L 368.50 255.00 L 368.50 256.00 L 368.00 256.50 L 367.50 257.00 L 367.00 257.50 L 366.50 258.00 L 366.50 259.00 L 366.50 260.00 L 366.00 260.50 L 365.50 261.00 L 365.00 261.50 L 364.50 262.00 L 364.50 263.00 L 364.00 263.50 L 363.50 264.00 L 363.50 265.00 L 363.00 265.50 L 362.50 266.00 L 362.50 267.00 L 362.00 267.50 L 361.50 268.00 L 361.00 268.50 L 360.50 269.00 L 360.50 270.00 L 360.00 270.50 L 359.50 271.00 L 359.00 271.50 L 358.50 272.00 L 358.50 273.00 L 358.00 273.50 L 357.50 274.00 L 357.50 275.00 L 357.00 275.50 L 356.50 276.00 L 356.00 276.50 L 355.50 277.00 L 355.00 277.50 L 354.50 278.00 L 354.50 279.00 L 354.00 279.50 L 353.50 280.00 L 353.00 280.50 L 352.50 281.00 L 352.00 281.50 L 351.50 282.00 L 351.50 283.00 L 351.00 283.50 L 350.50 284.00 L 350.00 284.50 L 349.50 285.00 L 349.00 285.50 L 348.50 286.00 L 348.00 286.50 L 347.50 287.00 L 347.50 288.00 L 347.00 288.50 L 346.50 289.00 L 346.00 289.50 L 345.50 290.00 L 345.00 290.50 L 344.50 291.00 L 344.00 291.50 L 343.50 292.00 L 343.00 292.50 L 342.50 293.00 L 342.00 293.50 L 341.50 294.00 L 341.00 294.50 L 340.50 295.00 L 340.00 295.50 L 339.50 296.00 L 339.00 296.50 L 338.50 297.00 L 338.50 298.00 L 338.00 298.50 L 337.00 298.50 L 336.50 299.00 L 336.50 300.00 L 336.00 300.50 L 335.00 300.50 L 334.50 301.00 L 334.50 302.00 L 334.00 302.50 L 333.00 302.50 L 332.50 303.00 L 332.00 303.50 L 331.50 304.00 L 331.00 304.50 L 330.50 305.00 L 330.00 305.50 L 329.50 306.00 L 329.00 306.50 L 328.50 307.00 L 328.00 307.50 L 327.50 308.00 L 327.00 308.50 L 326.50 309.00 L 326.00 309.50 L 325.00 309.50 L 324.50 310.00 L 324.00 310.50 L 323.50 311.00 L 323.00 311.50 L 322.50 312.00 L 322.00 312.50 L 321.50 313.00 L 321.00 313.50 L 320.00 313.50 L 319.50 314.00 L 319.00 314.50 L 318.50 315.00 L 318.00 315.50 L 317.00 315.50 L 316.50 316.00 L 316.00 316.50 L 315.50 317.00 L 315.00 317.50 L 314.00 317.50 L 313.50 318.00 L 313.00 318.50 L 312.50 319.00 L 312.00 319.50 L 311.00 319.50 L 310.50 320.00 L 310.00 320.50 L 309.50 321.00 L 309.00 321.50 L 308.00 321.50 L 307.50 322.00 L 307.00 322.50 L 306.50 323.00 L 306.00 323.50 L 305.00 323.50 L 304.50 324.00 L 304.00 324.50 L 303.00 324.50 L 302.50 325.00 L 302.00 325.50 L 301.00 325.50 L 300.50 326.00 L 300.00 326.50 L 299.50 327.00 L 299.00 327.50 L 298.00 327.50 L 297.00 327.50 L 296.50 328.00 L 296.00 328.50 L 295.50 329.00 L 295.00 329.50 L 294.00 329.50 L 293.00 329.50 L 292.50 330.00 L 292.00 330.50 L 291.00 330.50 L 290.50 331.00 L 290.00 331.50 L 289.00 331.50 L 288.50 332.00 L 288.00 332.50 L 287.00 332.50 L 286.50 333.00 L 286.00 333.50 L 285.00 333.50 L 284.00 333.50 L 283.50 334.00 L 283.00 334.50 L 282.00 334.50 L 281.00 334.50 L 280.50 335.00 L 280.00 335.50 L 279.00 335.50 L 278.00 335.50 L 277.50 336.00 L 277.00 336.50 L 276.00 336.50 L 275.00 336.50 L 274.50 337.00 L 274.00 337.50 L 273.00 337.50 L 272.50 338.00 L 272.00 338.50 L 271.00 338.50 L 270.00 338.50 L 269.00 338.50 L 268.50 339.00 L 268.00 339.50 L 267.00 339.50 L 266.00 339.50 L 265.00 339.50 L 264.50 340.00 L 264.00 340.50 L 263.00 340.50 L 262.00 340.50 L 261.00 340.50 L 260.50 341.00 L 260.00 341.50 L 259.00 341.50 L 258.00 341.50 L 257.00 341.50 L 256.00 341.50 L 255.50 342.00 L 255.00 342.50 L 254.00 342.50 L 253.00 342.50 L 252.00 342.50 L 251.00 342.50 L 250.00 342.50 L 249.50 343.00 L 249.00 343.50 L 248.00 343.50 L 247.00 343.50 L 246.00 343.50 L 245.00 343.50 L 244.00 343.50 L 243.00 343.50 L 242.50 344.00 L 242.00 344.50 Z" />
  </g>
</svg>
